<?xml version="1.0" standalone="no"?>
<!DOCTYPE svg PUBLIC "-//W3C//DTD SVG 20010904//EN"
 "http://www.w3.org/TR/2001/REC-SVG-20010904/DTD/svg10.dtd">
<svg version="1.0" xmlns="http://www.w3.org/2000/svg"
 width="700.000000pt" height="700.000000pt" viewBox="0 0 700.000000 700.000000"
 preserveAspectRatio="xMidYMid meet">
<metadata>
Created by potrace 1.14, written by Peter Selinger 2001-2017
</metadata>
<g transform="translate(0.000000,700.000000) scale(0.100000,-0.100000)"
fill="#000000" stroke="none">
<path d="M4874 5793 c1 -665 0 -1217 -2 -1228 -3 -20 -10 -20 -1640 -20
l-1637 1 -25 -26 c-14 -14 -34 -37 -45 -50 -21 -26 -159 -191 -224 -270 -144
-171 -373 -445 -406 -485 -33 -40 -158 -190 -233 -280 -9 -11 -73 -87 -141
-170 -68 -82 -129 -154 -135 -160 -6 -5 -29 -32 -51 -60 -21 -27 -42 -52 -45
-55 -3 -3 -38 -45 -79 -95 -41 -49 -80 -97 -88 -106 -12 -14 167 -15 1911 -15
l1923 1 38 45 c20 25 52 63 70 85 136 165 252 306 280 340 18 22 90 110 160
195 70 85 143 175 164 200 20 24 59 72 86 105 28 33 122 148 210 255 88 107
164 200 170 207 5 6 69 84 140 172 72 88 133 160 136 161 3 0 33 -33 66 -72
69 -84 384 -461 416 -498 24 -28 211 -249 417 -495 334 -398 414 -493 455
-540 24 -28 54 -64 67 -80 12 -17 31 -39 40 -49 17 -19 18 73 18 2087 l0 2107
-1008 0 -1008 0 0 -1207z"/>
<path d="M110 898 l0 -898 3383 0 3384 0 -1 897 -1 898 -3382 0 -3383 0 0
-897z"/>
</g>
</svg>
