<svg width="92" height="58" viewBox="0 0 92 58" fill="none" xmlns="http://www.w3.org/2000/svg">
<g filter="url(#filter0_d_130_194)">
<path d="M5.67285 0C2.98571 0 0 2.97872 0 5.65957V50.3404C0 53.0213 2.98618 56 5.67285 56H72.2542C74.4035 56 76.7332 54.2128 77.9271 52.1277L90.7656 31.8723C92.5574 29.1915 92.2587 26.5106 90.7656 24.4255L77.9271 4.17021C76.4939 2.02553 74.9413 0 72.2542 0H5.67285Z" fill="url(#paint0_linear_130_194)"/>
</g>
<g clip-path="url(#clip0_130_194)">
<path fill-rule="evenodd" clip-rule="evenodd" d="M30 31.5574V24.4426C30 23.647 30.3161 22.8839 30.8787 22.3213L36.3213 16.8787C36.8839 16.3161 37.647 16 38.4426 16H45.5574C46.353 16 47.1161 16.3161 47.6787 16.8787L53.1213 22.3213C53.6839 22.8839 54 23.647 54 24.4426V31.5574C54 32.353 53.6839 33.1161 53.1213 33.6787L47.6787 39.1213C47.1161 39.6839 46.353 40 45.5574 40H38.4426C37.647 40 36.8839 39.6839 36.3213 39.1213L30.8787 33.6787C30.3161 33.1161 30 32.353 30 31.5574ZM37.08 26.8C36.4835 26.8 36 27.2835 36 27.88C36 28.4765 36.4835 28.96 37.08 28.96H46.92C47.5165 28.96 48 28.4765 48 27.88C48 27.2835 47.5165 26.8 46.92 26.8H37.08Z" fill="#EA3B03"/>
</g>
<defs>
<filter id="filter0_d_130_194" x="0" y="0" width="92" height="58" filterUnits="userSpaceOnUse" color-interpolation-filters="sRGB">
<feFlood flood-opacity="0" result="BackgroundImageFix"/>
<feColorMatrix in="SourceAlpha" type="matrix" values="0 0 0 0 0 0 0 0 0 0 0 0 0 0 0 0 0 0 127 0" result="hardAlpha"/>
<feOffset dy="2"/>
<feComposite in2="hardAlpha" operator="out"/>
<feColorMatrix type="matrix" values="0 0 0 0 0.954167 0 0 0 0 0.494256 0 0 0 0 0.347476 0 0 0 1 0"/>
<feBlend mode="normal" in2="BackgroundImageFix" result="effect1_dropShadow_130_194"/>
<feBlend mode="normal" in="SourceGraphic" in2="effect1_dropShadow_130_194" result="shape"/>
</filter>
<linearGradient id="paint0_linear_130_194" x1="46" y1="0" x2="46" y2="56" gradientUnits="userSpaceOnUse">
<stop stop-color="#FFBBA5"/>
<stop offset="1" stop-color="#FFA183"/>
</linearGradient>
<clipPath id="clip0_130_194">
<rect width="24" height="24" fill="white" transform="translate(30 16)"/>
</clipPath>
</defs>
</svg>
