<svg width="93" height="59" viewBox="0 0 93 59" fill="none" xmlns="http://www.w3.org/2000/svg">
<g filter="url(#filter0_d_84_200)">
<path d="M5.8877 0.481445C3.20055 0.481445 0.214844 3.46017 0.214844 6.14102V50.8219C0.214844 53.5027 3.20102 56.4814 5.8877 56.4814H72.469C74.6184 56.4814 76.9481 54.6942 78.1419 52.6091L90.9804 32.3538C92.7723 29.6729 92.4736 26.9921 90.9804 24.907L78.1419 4.65166C76.7088 2.50698 75.1562 0.481445 72.469 0.481445H5.8877Z" fill="url(#paint0_linear_84_200)"/>
</g>
<g clip-path="url(#clip0_84_200)">
<path fill-rule="evenodd" clip-rule="evenodd" d="M45.3645 16.5729V20.1592C45.3645 21.3546 46.5599 22.5501 47.7553 22.5501H51.3416C51.9393 22.55 48.8312 19.4418 48.353 18.9636C47.8749 18.4854 45.3645 15.9751 45.3645 16.5729ZM35.8011 16.5725H42.9737V21.3542C42.9737 23.1473 44.7669 24.9405 46.56 24.9405H51.3418V36.8948C51.3418 38.688 49.5486 40.4811 47.7555 40.4811H35.8011C34.008 40.4811 32.2148 38.688 32.2148 36.8948V20.1588C32.2148 18.3656 34.008 16.5725 35.8011 16.5725ZM44.9506 27.3383C44.7967 27.3634 44.677 27.4121 44.5497 27.5015C44.5133 27.527 44.0703 27.9664 42.6971 29.339L40.8923 31.1429L39.9846 30.2363L39.8967 30.1484C39.1205 29.373 39.0425 29.2951 38.9497 29.2444C38.9359 29.2369 38.9218 29.2299 38.905 29.2214C38.8361 29.1864 38.7386 29.1533 38.6583 29.1378C38.5816 29.1229 38.4217 29.1231 38.3413 29.1382C37.9703 29.2075 37.6887 29.489 37.6164 29.8628C37.6015 29.9395 37.6017 30.0994 37.6168 30.1799C37.6319 30.2608 37.6627 30.353 37.6987 30.4252C37.706 30.4398 37.7118 30.4521 37.718 30.4641C37.7665 30.5571 37.8442 30.6349 38.8985 31.6893C38.9505 31.7413 39.0048 31.7956 39.0616 31.8525C39.121 31.9119 39.1777 31.9686 39.2318 32.0227C40.2748 33.0661 40.3531 33.1444 40.4466 33.1939C40.459 33.2005 40.4717 33.2066 40.487 33.2143C40.6157 33.2798 40.7376 33.3083 40.8892 33.3086C41.0438 33.3089 41.1644 33.2813 41.296 33.2156C41.3036 33.2118 41.3103 33.2087 41.3166 33.2057C41.3209 33.2037 41.3251 33.2018 41.3292 33.1998C41.4204 33.1554 41.4963 33.0795 43.2515 31.3237C43.3669 31.2083 43.4896 31.0855 43.6201 30.9551C43.7525 30.8226 43.8769 30.6982 43.9938 30.5812C45.7397 28.8352 45.8165 28.7584 45.8621 28.6662C45.8673 28.6558 45.872 28.6452 45.8788 28.632C45.9138 28.563 45.9469 28.4654 45.9624 28.3851C45.9772 28.3085 45.977 28.1485 45.962 28.0681C45.8936 27.7023 45.6171 27.4208 45.2531 27.3464C45.1753 27.3305 45.0235 27.3264 44.9506 27.3383Z" fill="#0EC909"/>
</g>
<defs>
<filter id="filter0_d_84_200" x="0.214844" y="0.481445" width="92" height="58" filterUnits="userSpaceOnUse" color-interpolation-filters="sRGB">
<feFlood flood-opacity="0" result="BackgroundImageFix"/>
<feColorMatrix in="SourceAlpha" type="matrix" values="0 0 0 0 0 0 0 0 0 0 0 0 0 0 0 0 0 0 127 0" result="hardAlpha"/>
<feOffset dy="2"/>
<feComposite in2="hardAlpha" operator="out"/>
<feColorMatrix type="matrix" values="0 0 0 0 0.494223 0 0 0 0 0.9125 0 0 0 0 0.480583 0 0 0 1 0"/>
<feBlend mode="normal" in2="BackgroundImageFix" result="effect1_dropShadow_84_200"/>
<feBlend mode="normal" in="SourceGraphic" in2="effect1_dropShadow_84_200" result="shape"/>
</filter>
<linearGradient id="paint0_linear_84_200" x1="46.2148" y1="0.481445" x2="46.2148" y2="56.4814" gradientUnits="userSpaceOnUse">
<stop stop-color="#D2FFD1"/>
<stop offset="1" stop-color="#9DFF9A"/>
</linearGradient>
<clipPath id="clip0_84_200">
<rect width="24" height="24" fill="white" transform="translate(30.2148 16.4814)"/>
</clipPath>
</defs>
</svg>
