<svg width="68" height="45" viewBox="0 0 68 45" fill="none" xmlns="http://www.w3.org/2000/svg">
<g filter="url(#filter0_d_47_890)">
<path d="M4.19297 0.322266C2.20683 0.322266 0 2.55631 0 4.56695V38.0776C0 40.0882 2.20717 42.3223 4.19297 42.3223H53.4053C54.9939 42.3223 56.7159 40.9818 57.5983 39.418L67.0876 24.2265C68.412 22.2159 68.1912 20.2052 67.0876 18.6414L57.5983 3.44993C56.539 1.84141 55.3914 0.322266 53.4053 0.322266H4.19297Z" fill="url(#paint0_linear_47_890)"/>
</g>
<path d="M37.2217 14.6055L36.3614 12.3472C36.2632 12.0894 36.3255 11.798 36.5205 11.603L40.0498 8.07375C40.1353 7.98829 40.2796 8.01313 40.3315 8.12226L41.5629 10.7081C41.5999 10.7858 41.6408 10.8611 41.6853 10.9339L43.725 8.94854L44.425 9.64854L42.3946 11.6789C42.5408 11.7786 42.6983 11.8629 42.865 11.9295L44.9934 12.7809C45.2237 12.873 45.2878 13.1689 45.1161 13.348L41.7796 16.8296C41.5807 17.0372 41.2752 17.102 41.0091 16.9932L38.5835 16.0009C38.4652 15.9525 38.3516 15.8952 38.2436 15.8299L31.8453 22.2282C31.9447 22.4479 32 22.6918 32 22.9485C32 23.915 31.2165 24.6985 30.25 24.6985C29.2835 24.6985 28.5 23.915 28.5 22.9485C28.5 21.982 29.2835 21.1985 30.25 21.1985C30.5095 21.1985 30.7558 21.255 30.9773 21.3563L37.4494 15.0568C37.3589 14.9157 37.2823 14.7647 37.2217 14.6055Z" fill="#432102"/>
<path d="M29.4083 11.7905C29.6069 11.7726 29.7994 11.7612 30.0986 11.7494C30.201 11.7453 30.852 11.7514 30.9637 11.7574C31.6771 11.7959 32.2958 11.8797 32.9398 12.0251C33.2913 12.1045 33.6825 12.2137 34.0244 12.3272C34.169 12.3738 34.2423 12.5243 34.1859 12.6814C34.0575 13.0385 33.8902 13.5016 33.7835 13.7954C33.7275 13.9495 33.5378 14.0397 33.3697 13.9837C32.6676 13.7575 31.918 13.6101 31.18 13.5535C30.8922 13.5315 30.7633 13.527 30.4245 13.527C30.0856 13.527 29.9567 13.5315 29.669 13.5535C27.7518 13.7004 25.9223 14.4265 24.4131 15.6396C23.8721 16.0745 23.3659 16.582 22.927 17.1295C21.717 18.6389 20.9969 20.4696 20.8523 22.4035C20.8332 22.6599 20.8286 22.7975 20.8286 23.1235C20.8286 23.4624 20.8332 23.5913 20.8552 23.8791C21.0096 25.8959 21.8086 27.8216 23.1305 29.3635C23.3489 29.6182 23.6306 29.9124 23.8709 30.1366C25.4808 31.639 27.5179 32.5329 29.7045 32.6964C29.9609 32.7155 30.0985 32.7201 30.4245 32.7201C30.7633 32.7201 30.8922 32.7155 31.18 32.6935C33.197 32.539 35.1273 31.7379 36.6653 30.4168C37.208 29.9506 37.695 29.4299 38.1187 28.8627C39.2141 27.3965 39.8601 25.67 39.9966 23.8435C40.0158 23.5871 40.0203 23.4495 40.0203 23.1235C40.0203 22.6214 39.9938 22.23 39.9284 21.767C39.8401 21.1414 39.6762 20.4759 39.4706 19.9021C39.4149 19.7516 39.4794 19.5997 39.6121 19.5478C39.9645 19.4098 40.5303 19.1915 40.8298 19.0776C40.9454 19.0339 41.0597 19.0671 41.111 19.2117C41.4953 20.2671 41.7166 21.3404 41.7834 22.4717C41.8094 22.9128 41.8061 23.4488 41.7744 23.9117C41.6424 25.8415 41.0248 27.6909 39.9685 29.319C39.6224 29.8525 39.1775 30.4229 38.7621 30.8658C38.0474 31.6279 37.279 32.261 36.424 32.7924C34.8476 33.7722 33.0687 34.3463 31.2126 34.4744C30.9256 34.4942 30.7973 34.498 30.4245 34.498C30.0516 34.498 29.9234 34.4942 29.6364 34.4744C28.5423 34.3989 27.4736 34.1687 26.4544 33.789C25.1177 33.2909 23.8868 32.545 22.8194 31.5862C22.5496 31.3439 22.2599 31.056 22.0139 30.7858C21.7727 30.5209 21.5431 30.2435 21.3248 29.9531C20.0036 28.1959 19.2259 26.1081 19.0744 23.9117C19.0546 23.6247 19.0508 23.4964 19.0508 23.1235C19.0508 22.7507 19.0546 22.6224 19.0744 22.3354C19.1499 21.2413 19.3801 20.1723 19.7598 19.1532C20.2579 17.8163 21.0037 16.5854 21.9624 15.5179C22.2047 15.248 22.4926 14.9583 22.7627 14.7123C23.3442 14.1828 23.9992 13.7001 24.6709 13.306C26.1226 12.4541 27.7241 11.9418 29.4083 11.7905Z" fill="#5A2B00" fill-opacity="0.6"/>
<path d="M29.2917 16.3928C29.6001 16.3414 29.8963 16.3122 30.2346 16.2999C30.3282 16.2965 30.6972 16.3019 30.8064 16.3083C31.6459 16.3576 32.4456 16.5506 33.202 16.8868C33.3938 16.9759 33.5132 17.1888 33.3938 17.4188C33.3277 17.5464 33.2479 17.7 33.1621 17.8647L32.956 18.2603C32.8312 18.4999 32.5674 18.5728 32.2912 18.4523C31.5064 18.1385 30.6407 18.0287 29.7916 18.1353C28.857 18.2526 27.9531 18.6429 27.2321 19.2404C26.2443 20.059 25.6096 21.1984 25.4423 22.4532C25.2671 23.7672 25.6104 25.0886 26.3999 26.1396C26.8742 26.771 27.4792 27.2766 28.1802 27.6275C28.7984 27.937 29.459 28.111 30.1625 28.1495C30.3076 28.1575 30.6822 28.1538 30.8064 28.1432C31.2611 28.1044 31.6397 28.0268 32.0458 27.8894C33.0949 27.5342 34.0025 26.833 34.6205 25.9C34.8174 25.6028 34.9635 25.3251 35.0948 24.9987C35.5691 23.8191 35.5751 22.4775 35.1114 21.2943C35.0719 21.1935 35.0194 21.0738 34.9662 20.9615C34.8955 20.8177 34.9123 20.605 35.0808 20.5093C35.3662 20.3469 35.8168 20.0927 36.1028 19.9329C36.2465 19.8528 36.4085 19.8373 36.5068 20.0241L36.5267 20.0635C37.0051 21.0136 37.2516 22.0551 37.2516 23.127C37.2516 24.8206 36.6351 26.4263 35.4968 27.6974C35.3872 27.8199 35.1204 28.0866 34.998 28.1964C34.0194 29.0733 32.8574 29.6376 31.5811 29.8557C31.3478 29.8955 31.1349 29.921 30.8663 29.941C30.7269 29.9515 30.1302 29.9514 29.9862 29.941C29.559 29.91 29.1743 29.8506 28.7947 29.7571C27.3475 29.4007 26.0518 28.5759 25.116 27.4156C24.2476 26.3388 23.7317 25.0449 23.6222 23.669C23.5853 23.2059 23.5983 22.6856 23.658 22.2376C23.8412 20.8637 24.4077 19.6271 25.3345 18.5779C25.5164 18.372 25.873 18.0305 26.1005 17.8443C27.0278 17.0856 28.1221 16.5878 29.2917 16.3928Z" fill="#5A2B00" fill-opacity="0.8"/>
<defs>
<filter id="filter0_d_47_890" x="0" y="0.322266" width="68" height="44" filterUnits="userSpaceOnUse" color-interpolation-filters="sRGB">
<feFlood flood-opacity="0" result="BackgroundImageFix"/>
<feColorMatrix in="SourceAlpha" type="matrix" values="0 0 0 0 0 0 0 0 0 0 0 0 0 0 0 0 0 0 127 0" result="hardAlpha"/>
<feOffset dy="2"/>
<feComposite in2="hardAlpha" operator="out"/>
<feColorMatrix type="matrix" values="0 0 0 0 0.795833 0 0 0 0 0.595262 0 0 0 0 0.0709619 0 0 0 1 0"/>
<feBlend mode="normal" in2="BackgroundImageFix" result="effect1_dropShadow_47_890"/>
<feBlend mode="normal" in="SourceGraphic" in2="effect1_dropShadow_47_890" result="shape"/>
</filter>
<linearGradient id="paint0_linear_47_890" x1="34" y1="0.322266" x2="34" y2="42.3223" gradientUnits="userSpaceOnUse">
<stop stop-color="#FFD66D"/>
<stop offset="1" stop-color="#F5BB24"/>
</linearGradient>
</defs>
</svg>
