<svg width="143" height="36" viewBox="0 0 143 36" fill="none" xmlns="http://www.w3.org/2000/svg">
<g clip-path="url(#clip0_37_1340)">
<path fill-rule="evenodd" clip-rule="evenodd" d="M35.4316 21.6754V0H25.0651V12.6283H8.16459L0.5625 21.7382H20.3531L27.8295 12.6283L35.4316 21.6754ZM0.5625 26.7644V36H35.3688V26.7644H0.5625Z" fill="url(#paint0_linear_37_1340)"/>
<path d="M54.896 27.9198C54.6827 27.9198 54.5333 27.8452 54.448 27.6958C54.3627 27.5465 54.32 27.3865 54.32 27.2158C54.3413 26.8532 54.4267 26.6505 54.576 26.6078C54.7253 26.5652 54.9067 26.5438 55.12 26.5438C55.8027 26.5438 56.2827 26.4265 56.56 26.1918C56.8373 25.9358 57.008 25.6265 57.072 25.2638C57.1573 24.8798 57.2 24.4852 57.2 24.0798V8.81584H54.992C54.2667 8.83717 53.7013 8.99717 53.296 9.29584C52.8907 9.57317 52.592 10.0212 52.4 10.6398C52.208 11.2372 52.0373 12.0158 51.888 12.9758C51.8667 13.1678 51.728 13.3172 51.472 13.4238C51.2373 13.5092 51.0027 13.5518 50.768 13.5518C50.6187 13.5518 50.448 13.4985 50.256 13.3918C50.0853 13.2852 50 13.1252 50 12.9118L50.096 8.39984C50.096 8.10117 50.1813 7.8985 50.352 7.79184C50.5227 7.68517 50.7253 7.63184 50.96 7.63184H66.608C66.8427 7.63184 67.0347 7.68517 67.184 7.79184C67.3547 7.8985 67.44 8.10117 67.44 8.39984L67.568 12.9118C67.568 13.1252 67.472 13.2852 67.28 13.3918C67.1093 13.4985 66.9387 13.5518 66.768 13.5518C66.5547 13.5518 66.3307 13.5092 66.096 13.4238C65.8613 13.3172 65.7227 13.1678 65.68 12.9758C65.5307 12.0158 65.3493 11.2372 65.136 10.6398C64.944 10.0212 64.6453 9.57317 64.24 9.29584C63.856 8.99717 63.2907 8.83717 62.544 8.81584H60.368V24.0798C60.3893 24.4852 60.432 24.8798 60.496 25.2638C60.56 25.6265 60.7307 25.9358 61.008 26.1918C61.3067 26.4265 61.7867 26.5438 62.448 26.5438C62.6613 26.5438 62.8427 26.5652 62.992 26.6078C63.1413 26.6505 63.2267 26.8532 63.248 27.2158C63.248 27.3865 63.2053 27.5465 63.12 27.6958C63.0347 27.8452 62.8853 27.9198 62.672 27.9198C61.9893 27.8772 61.3387 27.8452 60.72 27.8238C60.1227 27.8238 59.5147 27.8238 58.896 27.8238C57.616 27.8238 56.2827 27.8558 54.896 27.9198Z" fill="#101012"/>
<path d="M75.0364 28.208C73.5857 28.208 72.4337 27.7707 71.5804 26.896C70.7271 26.0214 70.3004 24.8694 70.3004 23.44V17.52C70.3004 17.136 70.2791 16.784 70.2364 16.464C70.2151 16.1227 70.0977 15.856 69.8844 15.664C69.6711 15.4507 69.2657 15.344 68.6684 15.344C68.4764 15.344 68.2951 15.3227 68.1244 15.28C67.9751 15.216 67.9004 15.024 67.9004 14.704C67.9004 14.384 68.0711 14.192 68.4124 14.128C69.3937 13.9787 70.1404 13.8294 70.6524 13.68C71.1857 13.5307 71.5911 13.4027 71.8684 13.296C72.1457 13.1894 72.3911 13.1254 72.6044 13.104C72.7751 13.0827 72.9137 13.1147 73.0204 13.2C73.1484 13.2854 73.2124 13.456 73.2124 13.712V23.408C73.2124 24.112 73.3617 24.688 73.6604 25.136C73.9804 25.584 74.3751 25.9147 74.8444 26.128C75.3137 26.3414 75.7937 26.448 76.2844 26.448C77.0311 26.448 77.6817 26.32 78.2364 26.064C78.7911 25.7867 79.2391 25.4774 79.5804 25.136C79.9217 24.7734 80.1457 24.4747 80.2524 24.24V17.52C80.2524 17.136 80.2311 16.784 80.1884 16.464C80.1671 16.1227 80.0497 15.856 79.8364 15.664C79.6231 15.4507 79.2177 15.344 78.6204 15.344C78.4284 15.344 78.2471 15.3227 78.0764 15.28C77.9271 15.216 77.8524 15.024 77.8524 14.704C77.8524 14.384 78.0231 14.192 78.3644 14.128C79.3457 13.9787 80.0924 13.8294 80.6044 13.68C81.1377 13.5307 81.5431 13.4027 81.8204 13.296C82.0977 13.1894 82.3431 13.1254 82.5564 13.104C82.7271 13.0827 82.8657 13.1147 82.9724 13.2C83.1004 13.2854 83.1644 13.456 83.1644 13.712V24.784C83.1644 26.0427 84.0071 26.672 85.6924 26.672C85.9271 26.672 86.0764 26.736 86.1404 26.864C86.2044 26.992 86.2364 27.1307 86.2364 27.28C86.2364 27.5787 86.0551 27.76 85.6924 27.824L80.5404 28.176C80.3911 28.176 80.3057 28.112 80.2844 27.984C80.2631 27.856 80.2524 27.7067 80.2524 27.536V25.744H80.1884C79.7831 26.128 79.3457 26.512 78.8764 26.896C78.4284 27.28 77.8951 27.5894 77.2764 27.824C76.6791 28.08 75.9324 28.208 75.0364 28.208Z" fill="#101012"/>
<path d="M87.9866 27.9197C87.8373 27.9197 87.7093 27.8557 87.6026 27.7277C87.5173 27.5784 87.4746 27.4291 87.4746 27.2797C87.5173 26.9597 87.6026 26.7891 87.7306 26.7677C87.8586 26.7251 88.0293 26.7037 88.2426 26.7037C88.8399 26.7037 89.2453 26.6077 89.4586 26.4157C89.6719 26.2024 89.7893 25.9251 89.8106 25.5837C89.8533 25.2424 89.8746 24.8904 89.8746 24.5277V17.1997C89.8746 16.8157 89.8533 16.4637 89.8106 16.1437C89.7893 15.8024 89.6719 15.5357 89.4586 15.3437C89.2453 15.1304 88.8399 15.0237 88.2426 15.0237C88.0506 15.0237 87.8693 15.0024 87.6986 14.9597C87.5493 14.8957 87.4746 14.7037 87.4746 14.3837C87.4746 14.0637 87.6453 13.8717 87.9866 13.8077C88.9679 13.6584 89.7146 13.5091 90.2266 13.3597C90.7599 13.2104 91.1546 13.0824 91.4106 12.9757C91.6879 12.8691 91.9333 12.8051 92.1466 12.7837C92.3173 12.7624 92.4559 12.7944 92.5626 12.8797C92.6906 12.9651 92.7546 13.1357 92.7546 13.3917V15.3757H92.8506C93.5759 14.6717 94.3226 14.0957 95.0906 13.6477C95.8586 13.1784 96.5626 12.9437 97.2026 12.9437C97.9493 12.9437 98.5146 13.2211 98.8986 13.7757C99.3039 14.3304 99.5066 14.9171 99.5066 15.5357C99.5066 16.0691 99.3359 16.5917 98.9946 17.1037C98.6533 17.5944 98.1413 17.8397 97.4586 17.8397C97.1173 17.8397 96.8399 17.7757 96.6266 17.6477C96.4346 17.4984 96.3279 17.3917 96.3066 17.3277C96.3066 17.2851 96.4026 17.1571 96.5946 16.9437C96.8079 16.7304 96.9146 16.4637 96.9146 16.1437C96.9146 15.7597 96.8079 15.4504 96.5946 15.2157C96.4026 14.9811 96.1359 14.8637 95.7946 14.8637C95.4319 14.8637 94.9626 15.0451 94.3866 15.4077C93.8319 15.7704 93.2986 16.2077 92.7866 16.7197V24.5277C92.7866 24.8904 92.7973 25.2424 92.8186 25.5837C92.8613 25.9251 92.9893 26.2024 93.2026 26.4157C93.4373 26.6077 93.8533 26.7037 94.4506 26.7037C94.6426 26.7037 94.8026 26.7251 94.9306 26.7677C95.0799 26.7891 95.1653 26.9597 95.1866 27.2797C95.1866 27.4291 95.1439 27.5784 95.0586 27.7277C94.9733 27.8557 94.8453 27.9197 94.6746 27.9197C94.0559 27.8771 93.4799 27.8451 92.9466 27.8237C92.4346 27.8237 91.8906 27.8237 91.3146 27.8237C90.7386 27.8237 90.1946 27.8237 89.6826 27.8237C89.1706 27.8451 88.6053 27.8771 87.9866 27.9197Z" fill="#101012"/>
<path d="M105.388 28.2074C104.086 28.2074 103.041 27.8341 102.252 27.0874C101.484 26.3408 101.1 25.4448 101.1 24.3994C101.1 23.3114 101.377 22.4581 101.932 21.8394C102.508 21.2208 103.254 20.7621 104.172 20.4634C105.11 20.1648 106.124 19.9621 107.212 19.8554C108.321 19.7488 109.398 19.6634 110.444 19.5994V17.0714C110.444 16.0688 110.188 15.2901 109.676 14.7354C109.185 14.1594 108.342 13.8714 107.148 13.8714C106.55 13.8714 105.985 14.0634 105.452 14.4474C104.94 14.8314 104.684 15.3861 104.684 16.1114C104.684 16.4528 104.769 16.7408 104.94 16.9754C105.11 17.2101 105.281 17.3914 105.452 17.5194C105.622 17.6474 105.708 17.7328 105.708 17.7754C105.708 17.8608 105.58 18.0208 105.324 18.2554C105.089 18.4688 104.758 18.5754 104.332 18.5754C103.67 18.5754 103.158 18.3301 102.796 17.8394C102.433 17.3488 102.252 16.8048 102.252 16.2074C102.252 15.3968 102.497 14.7568 102.988 14.2874C103.5 13.8181 104.15 13.4768 104.94 13.2634C105.729 13.0501 106.529 12.9434 107.34 12.9434C108.3 12.9434 109.228 13.0608 110.124 13.2954C111.041 13.5301 111.788 13.9781 112.364 14.6394C112.961 15.3008 113.26 16.2928 113.26 17.6154V25.0714C113.281 25.2848 113.334 25.5408 113.42 25.8394C113.505 26.1381 113.665 26.4048 113.9 26.6394C114.156 26.8528 114.497 26.9594 114.924 26.9594C115.073 26.9594 115.19 26.9914 115.276 27.0554C115.361 27.0981 115.404 27.2368 115.404 27.4714C115.404 27.6634 115.297 27.8128 115.084 27.9194C114.87 28.0261 114.625 28.1008 114.348 28.1434C114.07 28.1861 113.836 28.2074 113.644 28.2074C112.854 28.2074 112.15 27.9834 111.532 27.5354C110.913 27.0661 110.55 26.4261 110.444 25.6154C109.974 26.4688 109.27 27.1194 108.332 27.5674C107.414 27.9941 106.433 28.2074 105.388 28.2074ZM106.412 26.4794C107.137 26.4794 107.798 26.2981 108.396 25.9354C109.014 25.5728 109.505 25.0821 109.868 24.4634C110.252 23.8234 110.444 23.1194 110.444 22.3514V20.5274C108.246 20.6768 106.678 21.0288 105.74 21.5834C104.801 22.1381 104.332 23.0448 104.332 24.3034C104.332 25.7541 105.025 26.4794 106.412 26.4794Z" fill="#101012"/>
<path d="M122.735 28.3674C122.095 28.3674 121.487 28.2074 120.911 27.8874C120.335 27.5674 119.855 27.0768 119.471 26.4154C119.109 25.7541 118.927 24.9221 118.927 23.9194V14.5114L117.071 14.5754C116.922 14.5754 116.805 14.5221 116.719 14.4154C116.655 14.2874 116.623 14.1488 116.623 13.9994C116.623 13.5728 116.773 13.3274 117.071 13.2634C117.861 13.1141 118.458 12.8688 118.863 12.5274C119.269 12.1648 119.578 11.7381 119.791 11.2474C120.026 10.7568 120.239 10.2234 120.431 9.64744C120.495 9.47677 120.591 9.37011 120.719 9.32745C120.847 9.26345 120.986 9.23145 121.135 9.23145C121.263 9.23145 121.402 9.26345 121.551 9.32745C121.722 9.39145 121.807 9.50878 121.807 9.67945L121.583 13.3274L125.327 13.1034C125.519 13.0821 125.647 13.1354 125.711 13.2634C125.775 13.3914 125.807 13.5408 125.807 13.7114C125.807 13.9248 125.765 14.1381 125.679 14.3514C125.615 14.5648 125.53 14.6714 125.423 14.6714L121.839 14.5754V24.3034C121.839 24.9221 121.967 25.4874 122.223 25.9994C122.501 26.5114 122.991 26.7674 123.695 26.7674C123.93 26.7674 124.197 26.7461 124.495 26.7034C124.794 26.6608 125.114 26.5648 125.455 26.4154C125.541 26.3728 125.626 26.3408 125.711 26.3194C125.797 26.2768 125.882 26.2554 125.967 26.2554C126.138 26.2554 126.266 26.3301 126.351 26.4794C126.437 26.6074 126.511 26.7461 126.575 26.8954C126.639 27.0874 126.586 27.2368 126.415 27.3434C125.754 27.7701 125.146 28.0474 124.591 28.1754C124.037 28.3034 123.418 28.3674 122.735 28.3674Z" fill="#101012"/>
<path d="M136.75 28.2074C135.108 28.2074 133.721 27.8554 132.59 27.1514C131.481 26.4474 130.649 25.5088 130.094 24.3354C129.54 23.1621 129.262 21.8821 129.262 20.4954C129.262 19.5568 129.422 18.6501 129.742 17.7754C130.084 16.8794 130.564 16.0688 131.182 15.3434C131.801 14.5968 132.548 14.0101 133.422 13.5834C134.297 13.1568 135.289 12.9434 136.398 12.9434C138.361 12.9434 139.833 13.4554 140.814 14.4794C141.817 15.4821 142.393 16.7621 142.542 18.3194C142.542 19.0661 142.329 19.5568 141.902 19.7914C141.497 20.0261 140.964 20.1434 140.302 20.1434H132.526C132.526 21.3808 132.697 22.4901 133.038 23.4714C133.38 24.4314 133.913 25.1994 134.638 25.7754C135.385 26.3301 136.366 26.6074 137.582 26.6074C138.478 26.6074 139.246 26.4154 139.886 26.0314C140.526 25.6474 141.145 24.9754 141.742 24.0154C141.913 23.8021 142.148 23.7914 142.446 23.9834C142.617 24.0688 142.724 24.2074 142.766 24.3994C142.809 24.5701 142.788 24.7194 142.702 24.8474C142.041 25.8928 141.209 26.7141 140.206 27.3114C139.204 27.9088 138.052 28.2074 136.75 28.2074ZM132.526 18.9274H137.742C138.254 18.9274 138.66 18.8314 138.958 18.6394C139.278 18.4261 139.449 18.0741 139.47 17.5834C139.47 16.6661 139.214 15.8554 138.702 15.1514C138.212 14.4261 137.444 14.0634 136.398 14.0634C135.332 14.0634 134.436 14.4901 133.71 15.3434C133.006 16.1968 132.612 17.3914 132.526 18.9274Z" fill="#101012"/>
</g>
<defs>
<linearGradient id="paint0_linear_37_1340" x1="43.5" y1="36" x2="-1.5" y2="-2.5" gradientUnits="userSpaceOnUse">
<stop offset="0.0001" stop-color="#3D6FF0"/>
<stop offset="1" stop-color="#5786FE"/>
</linearGradient>
<clipPath id="clip0_37_1340">
<rect width="143" height="36" fill="white"/>
</clipPath>
</defs>
</svg>
