<svg width="22" height="22" viewBox="0 0 22 22" fill="none" xmlns="http://www.w3.org/2000/svg">
<path fill-rule="evenodd" clip-rule="evenodd" d="M8.19274 1.00979C8.15905 1.01373 8.04626 1.02681 7.94208 1.0389C7.40673 1.101 6.81383 1.3255 6.31687 1.65424C5.29767 2.32847 4.63603 3.46851 4.57197 4.66079C4.51287 5.76104 4.85332 6.74129 5.57265 7.5421C5.64457 7.62217 5.73068 7.71062 5.76402 7.73869L5.82463 7.78971L5.81406 6.91943L5.8035 6.04917L5.73767 5.8694C5.61932 5.54626 5.58233 5.31921 5.58233 4.91616C5.58233 4.62541 5.59066 4.52017 5.62706 4.35092C5.75739 3.74489 6.05177 3.21839 6.49205 2.80393C6.88456 2.43445 7.32581 2.20039 7.8661 2.07513C8.12345 2.01546 8.64986 2.00029 8.92858 2.04451C9.85341 2.19125 10.6577 2.77358 11.0784 3.60092C11.2234 3.88611 11.3159 4.17325 11.3674 4.49756C11.4096 4.76362 11.3922 5.28542 11.3333 5.5235C11.323 5.56522 11.3292 5.56943 11.4015 5.56943C11.5994 5.56943 11.935 5.70343 12.1314 5.86087C12.218 5.93028 12.2571 5.95086 12.2671 5.93232C12.3227 5.82916 12.4084 5.22611 12.4084 4.9377C12.4084 2.90182 10.8696 1.20857 8.84601 1.01775C8.63382 0.997743 8.32809 0.994027 8.19274 1.00979ZM8.2846 3.04127C8.20039 3.05026 8.05341 3.08153 7.95797 3.11081C7.27156 3.32132 6.78216 3.85014 6.61785 4.5589C6.58167 4.71487 6.57998 4.89454 6.57998 8.55508C6.57998 10.6631 6.57581 12.3879 6.57071 12.3879C6.5656 12.3879 6.25785 12.0869 5.88682 11.7189C5.14772 10.986 5.08123 10.9342 4.72608 10.8151C4.47357 10.7305 4.28581 10.7072 3.95279 10.7193C3.31056 10.7426 2.83333 10.9824 2.4646 11.4674C2.31651 11.6622 2.12963 12.0518 2.06715 12.2961C2.00359 12.5446 1.98232 12.8687 2.01558 13.082C2.0659 13.4049 2.21485 13.729 2.41889 13.9599C2.57029 14.1311 7.95748 19.4801 8.06114 19.5621C8.89282 20.2198 9.48145 20.5325 10.275 20.7383C11.0422 20.9372 11.91 21.018 13.0514 20.9967C14.4524 20.9706 15.4607 20.7714 16.3178 20.3514C16.932 20.0504 17.4606 19.5984 17.8119 19.0737C18.1924 18.5054 18.4348 17.8335 18.5814 16.9404C18.7221 16.0835 18.7411 15.544 18.7329 12.6329L18.7262 10.2546L18.6791 10.0913C18.5143 9.51928 18.1898 9.11374 17.706 8.87526C17.476 8.76192 17.3406 8.72258 17.0697 8.69049C16.7233 8.64945 16.2762 8.73518 15.9864 8.89817C15.9276 8.93122 15.8755 8.95827 15.8705 8.95827C15.8656 8.95827 15.8164 8.86409 15.761 8.74902C15.4235 8.04669 14.771 7.64511 14.0211 7.67827C13.7321 7.69105 13.5033 7.74692 13.2496 7.86663C13.0609 7.95568 13.0599 7.95593 13.0423 7.91112C12.8363 7.38413 12.4441 6.97463 11.9703 6.79192C11.7024 6.68862 11.5593 6.66678 11.2243 6.67805C10.9127 6.68854 10.7558 6.72151 10.5191 6.82622C10.4572 6.85357 10.4029 6.87597 10.3985 6.87597C10.394 6.87597 10.3868 6.37758 10.3825 5.76847L10.3746 4.66097L10.3196 4.45701C10.063 3.50469 9.24909 2.93847 8.2846 3.04127ZM8.86138 4.30858C9.09805 4.41775 9.28813 4.66328 9.34398 4.93194C9.35964 5.00731 9.36646 6.00567 9.3667 8.2617C9.36709 11.8352 9.35778 11.595 9.50175 11.7433C9.75581 12.0049 10.1598 11.9468 10.3326 11.6238C10.377 11.541 10.3771 11.5359 10.3824 10.1015C10.3855 9.24805 10.396 8.62218 10.408 8.56377C10.4611 8.30698 10.6521 8.0651 10.8897 7.95391C11.197 7.81008 11.623 7.87537 11.8892 8.10708C11.984 8.18957 12.0903 8.37539 12.1209 8.51206C12.1341 8.57096 12.1425 9.26563 12.1439 10.4097C12.1451 11.4023 12.1533 12.2536 12.1623 12.3016C12.2171 12.5964 12.5147 12.7756 12.8119 12.6927C12.9363 12.658 13.1032 12.496 13.1389 12.3754C13.1572 12.3133 13.1637 11.9553 13.1637 11.0052C13.1637 10.2159 13.1718 9.67674 13.1846 9.60931C13.2356 9.33996 13.4179 9.0881 13.6413 8.97831C13.8298 8.88563 13.9857 8.86462 14.174 8.90652C14.5012 8.97931 14.7486 9.15819 14.8667 9.40733C14.9406 9.56328 14.9365 9.44728 14.945 11.6224C14.9498 12.829 14.953 12.9352 14.9868 13.0106C15.0895 13.2392 15.3347 13.3637 15.5708 13.307C15.7201 13.2712 15.8231 13.1881 15.892 13.0478L15.9503 12.9289L15.956 11.7449C15.9613 10.6432 15.9644 10.5515 16.0012 10.4274C16.109 10.0634 16.4523 9.81568 16.8489 9.81568C17.2117 9.81568 17.5364 10.0186 17.6589 10.3219L17.706 10.4383V13.2045C17.706 16.0527 17.7027 16.1923 17.622 16.7567C17.4256 18.1308 16.8885 18.9536 15.8612 19.4541C15.318 19.7187 14.5761 19.8912 13.6741 19.9625C13.2957 19.9924 12.2751 19.9923 11.9064 19.9624C10.5703 19.8539 9.65063 19.5318 8.8358 18.887C8.74036 18.8114 7.94113 18.0326 7.05972 17.1563C6.17832 16.2799 4.97675 15.0851 4.38958 14.5011C3.80239 13.9171 3.29094 13.3929 3.25301 13.3361C2.99038 12.9432 3.07165 12.4361 3.453 12.0883C3.76497 11.8037 4.22257 11.7418 4.60996 11.9316C4.75613 12.0033 4.82699 12.0704 6.17168 13.4107L7.5803 14.8147L7.5905 9.89095L7.60071 4.9672L7.64964 4.84471C7.7459 4.60383 7.91216 4.42394 8.13155 4.32328C8.29113 4.25007 8.3198 4.24505 8.54999 4.25013C8.71102 4.25368 8.76386 4.26358 8.86138 4.30858Z" fill="#5A2B00"/>
</svg>
