<svg width="54" height="54" viewBox="0 0 54 54" fill="none" xmlns="http://www.w3.org/2000/svg">
<path d="M25.5 0.866025C26.4282 0.330126 27.5718 0.330127 28.5 0.866025L48.8827 12.634C49.8109 13.1699 50.3827 14.1603 50.3827 15.2321V38.768C50.3827 39.8397 49.8109 40.8301 48.8827 41.366L28.5 53.134C27.5718 53.6699 26.4282 53.6699 25.5 53.134L5.11731 41.366C4.18911 40.8301 3.61731 39.8397 3.61731 38.7679V15.232C3.61731 14.1603 4.18911 13.1699 5.11731 12.634L25.5 0.866025Z" fill="#FFEDBF"/>
<path d="M25.5 5.86603C26.4282 5.33013 27.5718 5.33013 28.5 5.86603L44.5526 15.134C45.4808 15.6699 46.0526 16.6603 46.0526 17.7321V36.268C46.0526 37.3397 45.4808 38.3301 44.5526 38.866L28.5 48.134C27.5718 48.6699 26.4282 48.6699 25.5 48.134L9.44744 38.866C8.51924 38.3301 7.94744 37.3397 7.94744 36.268V17.7321C7.94744 16.6603 8.51924 15.6699 9.44744 15.134L25.5 5.86603Z" fill="white"/>
<path fill-rule="evenodd" clip-rule="evenodd" d="M34.3307 19.5421C34.2646 19.5622 34.1352 19.6164 34.0431 19.6626C33.9509 19.7088 31.6372 21.9826 28.9015 24.7155L23.9274 29.6845L22.0217 27.7835C20.7153 26.4802 20.0482 25.8484 19.9003 25.7742C19.5741 25.6106 19.05 25.5927 18.6778 25.7327C18.4316 25.8253 18.3066 25.9245 17.8107 26.4206C17.1174 27.1142 17.0095 27.3039 17.0037 27.8393C16.9962 28.5316 16.8154 28.3132 20.2537 31.7635C22.3468 33.864 23.3894 34.8775 23.52 34.9387C23.7648 35.0533 24.0904 35.0533 24.335 34.9386C24.4679 34.8763 26.4136 32.9587 30.6698 28.6951C37.5223 21.8309 36.9956 22.4139 36.9879 21.7026C36.9822 21.1673 36.8743 20.9776 36.1809 20.284C35.6911 19.7939 35.5586 19.6882 35.324 19.6008C35.0405 19.495 34.5757 19.4676 34.3307 19.5421Z" fill="url(#paint0_linear_201_139)"/>
<defs>
<linearGradient id="paint0_linear_201_139" x1="34.2852" y1="32.5186" x2="24.4509" y2="16.4323" gradientUnits="userSpaceOnUse">
<stop stop-color="#0EC909"/>
<stop offset="0.530219" stop-color="#38E633"/>
<stop offset="1" stop-color="#54FC4F"/>
</linearGradient>
</defs>
</svg>
