<svg width="54" height="54" viewBox="0 0 54 54" fill="none" xmlns="http://www.w3.org/2000/svg">
<path d="M25.5 0.866025C26.4282 0.330126 27.5718 0.330127 28.5 0.866025L48.8827 12.634C49.8109 13.1699 50.3827 14.1603 50.3827 15.2321V38.768C50.3827 39.8397 49.8109 40.8301 48.8827 41.366L28.5 53.134C27.5718 53.6699 26.4282 53.6699 25.5 53.134L5.11731 41.366C4.18911 40.8301 3.61731 39.8397 3.61731 38.7679V15.232C3.61731 14.1603 4.18911 13.1699 5.11731 12.634L25.5 0.866025Z" fill="#FFEDBF"/>
<path d="M25.5 5.86603C26.4282 5.33013 27.5718 5.33013 28.5 5.86603L44.5526 15.134C45.4808 15.6699 46.0526 16.6603 46.0526 17.7321V36.268C46.0526 37.3397 45.4808 38.3301 44.5526 38.866L28.5 48.134C27.5718 48.6699 26.4282 48.6699 25.5 48.134L9.44744 38.866C8.51924 38.3301 7.94744 37.3397 7.94744 36.268V17.7321C7.94744 16.6603 8.51924 15.6699 9.44744 15.134L25.5 5.86603Z" fill="white"/>
<path fill-rule="evenodd" clip-rule="evenodd" d="M24.6418 17.4044C24.6565 17.6268 24.7454 19.6287 24.8395 21.8529C24.9335 24.0772 25.054 26.8787 25.1071 28.0784C25.1603 29.2782 25.2039 30.3094 25.2039 30.3701L25.204 30.4804H27.0387H28.8734L28.8995 30.223C28.9139 30.0815 28.96 29.1275 29.002 28.1029C29.044 27.0784 29.1661 24.2108 29.2734 21.7304C29.3806 19.25 29.4685 17.1709 29.4686 17.1103L29.4687 17H27.0419H24.6152L24.6418 17.4044ZM26.5159 32.4886C25.4236 32.6877 24.6419 33.4385 24.5206 34.4049C24.3976 35.3845 24.8305 36.2419 25.6756 36.6921C26.0902 36.913 26.4695 37 27.0177 37C27.8092 37 28.4137 36.7708 28.9164 36.2801C29.6254 35.5881 29.7465 34.3203 29.1813 33.5068C28.882 33.0761 28.4249 32.7465 27.9034 32.5853C27.5431 32.474 26.858 32.4262 26.5159 32.4886Z" fill="url(#paint0_linear_201_138)"/>
<defs>
<linearGradient id="paint0_linear_201_138" x1="30.2852" y1="38.5186" x2="19.7008" y2="35.4054" gradientUnits="userSpaceOnUse">
<stop stop-color="#E03B06"/>
<stop offset="0.530219" stop-color="#EA5627"/>
<stop offset="1" stop-color="#FF8B65"/>
</linearGradient>
</defs>
</svg>
