<svg width="24" height="25" viewBox="0 0 24 25" fill="none" xmlns="http://www.w3.org/2000/svg">
<path fill-rule="evenodd" clip-rule="evenodd" d="M11.2981 2.51862C10.3242 2.61322 9.68655 2.7358 8.95762 2.96849C7.3887 3.46933 6.06108 4.28526 4.88886 5.46916C3.33122 7.04231 2.42096 8.87285 2.07327 11.1313C1.96832 11.813 1.97756 13.2344 2.09171 13.9652C2.2654 15.0772 2.55856 15.9926 3.05571 16.975C3.53806 17.9282 4.03721 18.6341 4.77279 19.4035C7.82298 22.5935 12.5537 23.409 16.5163 21.4279C16.7573 21.3074 16.9672 21.1969 16.9827 21.1824C17.0056 21.161 16.7227 20.6356 16.4809 20.2506L16.4269 20.1646L15.9078 20.4155C14.5835 21.0557 13.4589 21.3124 11.9831 21.3113C10.5353 21.3103 9.43609 21.0591 8.14683 20.4348C5.36972 19.0899 3.47629 16.3619 3.1953 13.3007C2.82154 9.22887 5.32561 5.41061 9.21582 4.12054C12.1375 3.15166 15.3457 3.77246 17.7179 5.76576C19.076 6.90691 20.1099 8.54584 20.5601 10.2714C21.0154 12.0166 20.913 13.9357 20.2744 15.6264C19.9627 16.4516 19.2149 17.7309 18.932 17.9229C18.7891 18.0199 18.5171 18.0415 18.371 17.9675C18.324 17.9436 18.0876 17.7286 17.8455 17.4896L17.4055 17.0551L17.5807 16.8775L17.756 16.6998L16.3763 15.3226L14.9966 13.9453L14.4494 14.4927C14.1485 14.7938 13.8731 15.0401 13.8374 15.0401C13.8018 15.0401 13.5692 14.9888 13.3206 14.9261C11.4667 14.4586 10.0406 13.0346 9.57236 11.1834C9.50957 10.9352 9.45821 10.7029 9.45821 10.6673C9.45821 10.6317 9.70491 10.3567 10.0064 10.0562L10.5546 9.50987L9.17484 8.1317L7.79507 6.75356L7.02167 7.52513L6.24827 8.29665L6.24839 8.74656C6.24917 11.3699 7.25631 13.7701 9.11126 15.5693C10.913 17.3168 13.2187 18.2445 15.7623 18.2452L16.2141 18.2454L16.3855 18.071L16.5568 17.8967L17.0569 18.3805C17.4632 18.7736 17.6139 18.8925 17.8605 19.0141C18.1595 19.1617 18.1709 19.1639 18.6163 19.1639C19.0434 19.1639 19.0831 19.157 19.3316 19.0394C19.6673 18.8807 19.929 18.6351 20.2377 18.1893C21.1725 16.8392 21.7349 15.3579 21.953 13.672C22.016 13.185 22.0156 11.7167 21.9523 11.2681C21.6275 8.96338 20.6603 6.98895 19.0896 5.4237C17.4121 3.75198 15.2393 2.74057 12.8835 2.53465C12.446 2.49642 11.6132 2.48798 11.2981 2.51862Z" fill="#CB9812"/>
</svg>
