<svg width="18" height="18" viewBox="0 0 18 18" fill="none" xmlns="http://www.w3.org/2000/svg">
<path d="M9 18C13.9706 18 18 13.9706 18 9C18 4.02944 13.9706 0 9 0C4.02944 0 0 4.02944 0 9C0 13.9706 4.02944 18 9 18Z" fill="url(#paint0_linear_38_1399)"/>
<path d="M17.6 9C17.6 13.7496 13.7496 17.6 9 17.6C4.25035 17.6 0.4 13.7496 0.4 9C0.4 4.25035 4.25035 0.4 9 0.4C13.7496 0.4 17.6 4.25035 17.6 9Z" stroke="white" stroke-opacity="0.12" stroke-width="0.8"/>
<path d="M13.0151 6.66281V6.65216C12.9185 6.26086 12.6664 5.85646 12.3357 5.51591C11.9493 5.11642 11.4573 4.80289 10.9874 4.70138H10.9776C9.57628 4.43287 8.13675 4.43287 6.73546 4.70138H6.72563C5.85298 4.89048 4.90583 5.80243 4.69462 6.65216V6.66281C4.43513 7.84088 4.43513 9.06131 4.69462 10.2394V10.2492C4.84525 10.855 5.36917 11.4919 5.97332 11.8766C6.17062 12.0052 6.38539 12.1047 6.61102 12.1722V13.1201C6.61134 13.1959 6.63421 13.2698 6.67671 13.3325C6.71922 13.3953 6.77943 13.4439 6.84968 13.4723C6.91993 13.5006 6.99703 13.5074 7.07116 13.4918C7.14529 13.4762 7.2131 13.4388 7.26592 13.3845L8.22699 12.3858C8.43492 12.3973 8.64449 12.4038 8.85242 12.4038C9.5642 12.4036 10.2744 12.3362 10.9735 12.2024H10.9833C11.8535 12.0125 12.8015 11.1006 13.011 10.2508V10.241C13.2721 9.06272 13.2735 7.8417 13.0151 6.66281ZM12.2546 10.0642C12.1138 10.6184 11.3951 11.3085 10.8229 11.4354C10.0796 11.5778 9.3232 11.6395 8.56672 11.6196C8.55936 11.6191 8.55198 11.6204 8.54517 11.6232C8.53836 11.626 8.53229 11.6304 8.52743 11.636L7.82586 12.3563L7.07928 13.1218C7.06734 13.1344 7.05188 13.1431 7.03491 13.1469C7.01794 13.1506 7.00023 13.1492 6.98409 13.1427C6.96795 13.1363 6.95412 13.1251 6.94438 13.1108C6.93464 13.0964 6.92945 13.0794 6.92947 13.062V11.4902C6.92949 11.4776 6.92508 11.4654 6.917 11.4556C6.90892 11.4459 6.89769 11.4393 6.88526 11.437C6.76591 11.4087 6.65085 11.3647 6.54308 11.306C6.05682 11.0465 5.56646 10.5144 5.45349 10.0642C5.21949 8.99931 5.21949 7.89632 5.45349 6.83144C5.59347 6.27969 6.31632 5.59123 6.88445 5.46352C8.18545 5.21459 9.52185 5.21459 10.8229 5.46352C11.138 5.53392 11.4982 5.77378 11.7798 6.06848C12.0115 6.30834 12.1891 6.58504 12.2546 6.8339C12.4883 7.89799 12.4883 9.0001 12.2546 10.0642Z" fill="white"/>
<path d="M10.843 10.1466C10.7366 10.3893 10.5538 10.5905 10.3223 10.7196C10.2497 10.7504 10.1743 10.7743 10.0972 10.7908C10.0096 10.7646 9.92612 10.7466 9.85162 10.7147C9.23107 10.4732 8.65339 10.1335 8.1407 9.70859C7.9884 9.57871 7.84534 9.43839 7.71255 9.28863C7.38464 8.91101 7.10928 8.4908 6.89393 8.03941C6.78915 7.82575 6.70073 7.60472 6.61069 7.38451C6.52882 7.18395 6.64998 6.9752 6.77441 6.82539C6.89621 6.68645 7.04602 6.57486 7.21401 6.49794C7.27313 6.46823 7.34077 6.46015 7.40522 6.4751C7.46967 6.49006 7.52685 6.5271 7.56684 6.5798C7.776 6.81479 7.96034 7.07074 8.11696 7.34358C8.16629 7.42291 8.18318 7.51819 8.16413 7.60965C8.14508 7.70111 8.09154 7.78172 8.01463 7.83475C7.9737 7.8634 7.93277 7.89615 7.89756 7.92808C7.86286 7.95377 7.83294 7.98536 7.80915 8.0214C7.78863 8.05513 7.77618 8.09314 7.77277 8.13248C7.76936 8.17181 7.77509 8.2114 7.78951 8.24816C7.9475 8.68285 8.18736 9.0455 8.54592 9.30009C8.66726 9.38589 8.79799 9.45758 8.93558 9.51375C9.02543 9.56262 9.12638 9.58743 9.22865 9.58579C9.40711 9.56451 9.46605 9.36722 9.59048 9.26571C9.6476 9.21894 9.71828 9.19185 9.79202 9.18846C9.86576 9.18507 9.93863 9.20556 9.99979 9.24688C10.1324 9.32874 10.2601 9.42125 10.3878 9.5113C10.5141 9.5975 10.6357 9.69041 10.7521 9.78963C10.8065 9.82916 10.8454 9.88649 10.862 9.95168C10.8786 10.0169 10.8719 10.0858 10.843 10.1466Z" fill="white"/>
<path d="M9.08916 6.22338H8.98438C9.01794 6.22175 9.05314 6.22338 9.08916 6.22338Z" fill="white"/>
<path d="M10.9015 8.67664C10.8197 8.67664 10.7795 8.60705 10.7738 8.53092C10.7632 8.38111 10.755 8.23049 10.7345 8.0815C10.6991 7.83012 10.6116 7.58892 10.4775 7.37339C10.3396 7.14885 10.1562 6.95574 9.93903 6.80655C9.72188 6.65736 9.47582 6.55541 9.21678 6.50728C9.0989 6.486 8.97856 6.48108 8.85986 6.46881C8.78455 6.46062 8.6855 6.45571 8.66912 6.36238C8.66668 6.34426 8.66813 6.32582 8.67338 6.3083C8.67863 6.29078 8.68756 6.27458 8.69957 6.26079C8.71158 6.247 8.72639 6.23593 8.74303 6.22832C8.75966 6.22071 8.77772 6.21674 8.79601 6.21667C8.81564 6.21554 8.83532 6.21554 8.85495 6.21667C9.21278 6.2197 9.56433 6.31093 9.87847 6.48228C10.1926 6.65363 10.4597 6.89981 10.6559 7.19902C10.8109 7.44019 10.9161 7.70988 10.9654 7.99227C10.9965 8.16909 11.0079 8.35082 11.0219 8.53092C11.0246 8.54857 11.0237 8.56662 11.0189 8.58386C11.0142 8.60109 11.0059 8.61714 10.9945 8.63091C10.9832 8.64469 10.969 8.6559 10.9529 8.66378C10.9369 8.67166 10.9194 8.67605 10.9015 8.67664Z" fill="white"/>
<path d="M10.4581 8.29435C10.4576 8.31867 10.4543 8.34284 10.4483 8.36639C10.4411 8.39006 10.4269 8.41095 10.4074 8.42622C10.388 8.44149 10.3643 8.45041 10.3396 8.45175C10.3149 8.45309 10.2904 8.4468 10.2694 8.43372C10.2484 8.42064 10.232 8.40142 10.2223 8.37867C10.2133 8.34561 10.2092 8.31141 10.2101 8.27716C10.212 8.09406 10.1757 7.91256 10.1036 7.74424C10.0873 7.70822 10.0692 7.67138 10.0488 7.63618C9.9316 7.4342 9.75768 7.27109 9.5486 7.16711C9.42246 7.10755 9.28851 7.06621 9.15075 7.04431C9.09017 7.03449 9.02959 7.02876 8.96901 7.02057C8.95325 7.01978 8.93781 7.01576 8.92366 7.00877C8.9095 7.00177 8.89693 6.99195 8.88673 6.9799C8.87652 6.96785 8.8689 6.95384 8.86432 6.93873C8.85975 6.92362 8.85833 6.90773 8.86014 6.89205C8.86015 6.876 8.86355 6.86014 8.87012 6.84551C8.87669 6.83087 8.88628 6.81779 8.89826 6.80712C8.91024 6.79645 8.92435 6.78844 8.93964 6.78361C8.95494 6.77877 8.97109 6.77723 8.98702 6.77908C9.2274 6.78835 9.46287 6.84981 9.67713 6.95917C9.93875 7.09083 10.1522 7.30167 10.287 7.56168C10.3629 7.7135 10.4138 7.8766 10.4376 8.04467C10.442 8.06659 10.4453 8.08872 10.4475 8.11098C10.4515 8.1601 10.4532 8.20922 10.4573 8.26979C10.4573 8.27552 10.4581 8.28289 10.4581 8.29435Z" fill="white"/>
<path d="M9.89642 8.1811C9.89179 8.20185 9.88105 8.22074 9.86558 8.23533C9.85012 8.24992 9.83063 8.25954 9.80965 8.26296H9.79164C9.76482 8.2647 9.73816 8.25764 9.71571 8.24287C9.69325 8.2281 9.67623 8.20641 9.66721 8.1811C9.66212 8.16767 9.65881 8.15363 9.65738 8.13935C9.65308 8.08426 9.64487 8.02955 9.63282 7.97562C9.60849 7.86645 9.54646 7.76935 9.45764 7.70138C9.4147 7.67055 9.3668 7.64729 9.31602 7.63262C9.25134 7.61379 9.1834 7.6187 9.11955 7.60315C9.08798 7.59755 9.05993 7.57968 9.04151 7.55344C9.0231 7.52721 9.01584 7.49474 9.02131 7.46316C9.0274 7.43291 9.04431 7.40591 9.06888 7.38723C9.09344 7.36854 9.12397 7.35945 9.15475 7.36165C9.52968 7.38867 9.80965 7.56876 9.88169 7.97071C9.8891 8.00803 9.89429 8.04575 9.89724 8.08368C9.90183 8.11601 9.90155 8.14885 9.89642 8.1811Z" fill="white"/>
<defs>
<linearGradient id="paint0_linear_38_1399" x1="18" y1="0" x2="2.14577e-06" y2="18" gradientUnits="userSpaceOnUse">
<stop stop-color="#2358E1"/>
<stop offset="0.488764" stop-color="#5886FF"/>
<stop offset="1" stop-color="#4F7CF0"/>
</linearGradient>
</defs>
</svg>
