<svg width="18" height="18" viewBox="0 0 18 18" fill="none" xmlns="http://www.w3.org/2000/svg">
<path d="M9.00225 0H8.99775C4.03537 0 0 4.0365 0 9C0 10.9688 0.6345 12.7935 1.71338 14.2751L0.59175 17.6186L4.05113 16.5128C5.47425 17.4555 7.17188 18 9.00225 18C13.9646 18 18 13.9624 18 9C18 4.03763 13.9646 0 9.00225 0Z" fill="url(#paint0_linear_38_1396)"/>
<path d="M2.09261 14.4023L2.15828 14.2066L2.03673 14.0397C1.00611 12.6243 0.4 10.8815 0.4 9C0.4 4.25732 4.25639 0.4 8.99775 0.4H9.00225C13.7436 0.4 17.6 4.25841 17.6 9C17.6 13.7416 13.7436 17.6 9.00225 17.6C7.25268 17.6 5.63154 17.0799 4.27203 16.1793L4.11208 16.0733L3.92933 16.1317L1.22214 16.9972L2.09261 14.4023Z" stroke="white" stroke-opacity="0.12" stroke-width="0.8"/>
<path d="M12.8078 11.8819C12.6354 12.3685 11.9515 12.7721 11.406 12.8899C11.0328 12.9694 10.5453 13.0328 8.90431 12.3524C6.80528 11.4828 5.45354 9.34985 5.34819 9.21147C5.2473 9.07308 4.5 8.08204 4.5 7.05708C4.5 6.03211 5.02052 5.53302 5.23033 5.31874C5.40265 5.14285 5.68746 5.0625 5.96066 5.0625C6.04905 5.0625 6.12852 5.06696 6.19994 5.07054C6.40976 5.07946 6.51511 5.09196 6.6535 5.4232C6.82581 5.83837 7.24544 6.86333 7.29544 6.96869C7.34633 7.07404 7.39722 7.21689 7.3258 7.35528C7.25883 7.49813 7.19991 7.56152 7.09455 7.68295C6.9892 7.80437 6.8892 7.89722 6.78385 8.02758C6.68743 8.14097 6.5785 8.26239 6.69992 8.47221C6.82135 8.67756 7.24098 9.36235 7.85881 9.91233C8.65611 10.6221 9.30251 10.8489 9.53376 10.9453C9.70607 11.0168 9.91142 10.9998 10.0373 10.8659C10.1971 10.6936 10.3944 10.4079 10.5953 10.1266C10.7382 9.92483 10.9185 9.89983 11.1078 9.97126C11.3007 10.0382 12.3212 10.5427 12.531 10.6471C12.7408 10.7525 12.8792 10.8025 12.9301 10.8909C12.9801 10.9793 12.9801 11.3944 12.8078 11.8819Z" fill="white"/>
<defs>
<linearGradient id="paint0_linear_38_1396" x1="18" y1="0" x2="2.14577e-06" y2="18" gradientUnits="userSpaceOnUse">
<stop stop-color="#2358E1"/>
<stop offset="0.488764" stop-color="#5886FF"/>
<stop offset="1" stop-color="#4F7CF0"/>
</linearGradient>
</defs>
</svg>
