<svg width="200" height="200" viewBox="0 0 200 200" fill="none" xmlns="http://www.w3.org/2000/svg">
<g filter="url(#filter0_i_94_460)">
<path d="M24.4169 90.9022L14.2587 83.9121C13.5345 87.4122 12.8506 93.8692 12.8506 99.602C12.8506 143.705 48.1026 187.254 100.553 187.254C113.749 187.254 129.821 184.79 147.321 173.727L137.112 166.887C131.732 169.955 118.154 176.14 100.553 176.14C57.4058 176.14 19.5389 139.832 24.4169 90.9022Z" fill="url(#paint0_linear_94_460)"/>
</g>
<g filter="url(#filter1_i_94_460)">
<path fill-rule="evenodd" clip-rule="evenodd" d="M20.2431 38.9554C20.2431 37.9496 19.3882 37.0947 18.4327 37.0947C17.8385 37.0947 17.4437 37.344 16.8933 37.6915C16.8382 37.7263 16.7815 37.7621 16.7229 37.7988C9.38083 42.3876 4 50.0691 4 57.21C4 63.4457 8.67679 68.8768 15.0634 68.8768C21.8523 68.8768 25.7245 63.5463 25.7245 58.1654C25.7245 51.0748 19.3379 47.8061 17.1252 47.8061C17.6113 45.8784 18.8249 41.6508 19.7905 40.1623L19.7905 40.1623L19.7905 40.1623C20.0922 39.6594 20.2431 39.408 20.2431 38.9554ZM14.9129 49.5154C15.3152 46.0959 17.0652 40.6949 18.0307 39.4075C10.2361 43.7323 6.01187 51.4365 6.01187 57.3101C6.01187 63.4955 11.1413 67.0157 15.1643 67.0157C20.1931 67.0157 23.8642 62.9424 23.8642 58.2153C23.8642 53.4882 20.0423 49.5154 14.9129 49.5154Z" fill="url(#paint1_linear_94_460)"/>
</g>
<g filter="url(#filter2_i_94_460)">
<path fill-rule="evenodd" clip-rule="evenodd" d="M179.757 165.177C179.757 166.183 180.612 167.038 181.567 167.038C182.162 167.038 182.556 166.789 183.107 166.441C183.162 166.406 183.219 166.371 183.277 166.334C190.619 161.745 196 154.064 196 146.923C196 140.687 191.323 135.256 184.937 135.256C178.148 135.256 174.276 140.587 174.276 145.967C174.276 153.058 180.662 156.327 182.875 156.327C182.389 158.254 181.175 162.482 180.21 163.971L180.21 163.971L180.21 163.971C179.908 164.473 179.757 164.725 179.757 165.177ZM185.087 154.616C184.685 158.036 182.935 163.437 181.969 164.724C189.764 160.4 193.988 152.695 193.988 146.822C193.988 140.636 188.859 137.116 184.836 137.116C179.807 137.116 176.136 141.19 176.136 145.917C176.136 150.644 179.958 154.616 185.087 154.616Z" fill="url(#paint2_linear_94_460)"/>
</g>
<g filter="url(#filter3_i_94_460)">
<path fill-rule="evenodd" clip-rule="evenodd" d="M43.7782 38.9554C43.7782 37.9496 42.9233 37.0947 41.9678 37.0947C41.3736 37.0947 40.9788 37.344 40.4285 37.6915C40.3733 37.7263 40.3167 37.7621 40.258 37.7988C32.916 42.3876 27.5352 50.0691 27.5352 57.21C27.5352 63.4457 32.212 68.8768 38.5985 68.8768C45.3874 68.8768 49.2596 63.5463 49.2596 58.1654C49.2596 51.0748 42.873 47.8061 40.6604 47.8061C41.1465 45.8784 42.3601 41.6508 43.3256 40.1623L43.3256 40.1623L43.3256 40.1623C43.6274 39.6594 43.7782 39.408 43.7782 38.9554ZM38.4471 49.5154C38.8494 46.0959 40.5994 40.6949 41.565 39.4075C33.7703 43.7323 29.5461 51.4365 29.5461 57.3101C29.5461 63.4955 34.6755 67.0157 38.6985 67.0157C43.7273 67.0157 47.3984 62.9424 47.3984 58.2153C47.3984 53.4882 43.5765 49.5154 38.4471 49.5154Z" fill="url(#paint3_linear_94_460)"/>
</g>
<g filter="url(#filter4_i_94_460)">
<path fill-rule="evenodd" clip-rule="evenodd" d="M156.222 165.177C156.222 166.183 157.077 167.038 158.032 167.038C158.626 167.038 159.021 166.789 159.572 166.441C159.627 166.406 159.683 166.371 159.742 166.334C167.084 161.745 172.465 154.064 172.465 146.923C172.465 140.687 167.788 135.256 161.401 135.256C154.613 135.256 150.74 140.587 150.74 145.967C150.74 153.058 157.127 156.327 159.34 156.327C158.854 158.254 157.64 162.482 156.674 163.971L156.674 163.971L156.674 163.971C156.373 164.473 156.222 164.725 156.222 165.177ZM161.553 154.616C161.151 158.036 159.401 163.437 158.435 164.724C166.23 160.4 170.454 152.695 170.454 146.822C170.454 140.636 165.325 137.116 161.302 137.116C156.273 137.116 152.602 141.19 152.602 145.917C152.602 150.644 156.424 154.616 161.553 154.616Z" fill="url(#paint4_linear_94_460)"/>
</g>
<g filter="url(#filter5_i_94_460)">
<path d="M120.698 138.566C118.51 138.566 116.551 136.608 116.551 134.304C116.551 133.267 116.897 132.691 117.588 131.539C119.8 128.129 122.58 118.445 123.694 114.029C118.625 114.029 103.994 106.541 103.994 90.2976C103.994 77.9712 112.865 65.76 128.417 65.76C143.047 65.76 153.761 78.2016 153.761 92.4864C153.761 108.845 141.434 126.442 124.615 136.954C123.141 137.875 122.196 138.566 120.698 138.566Z" fill="url(#paint5_linear_94_460)"/>
</g>
<g filter="url(#filter6_i_94_460)">
<path d="M66.7833 138.566C64.5945 138.566 62.6361 136.608 62.6361 134.304C62.6361 133.267 62.9817 132.691 63.6729 131.539C65.8848 128.129 68.6649 118.445 69.7785 114.029C64.7097 114.029 50.0793 106.541 50.0793 90.2976C50.0793 77.9712 58.9497 65.76 74.5017 65.76C89.1321 65.76 99.8457 78.2016 99.8457 92.4864C99.8457 108.845 87.5193 126.442 70.7001 136.954C69.2256 137.875 68.2809 138.566 66.7833 138.566Z" fill="url(#paint6_linear_94_460)"/>
</g>
<g filter="url(#filter7_i_94_460)">
<path d="M50.2148 27.891L60.1216 34.6799C72.1405 27.3379 84.9639 23.1137 100.453 23.1137C143.074 23.1137 176.991 58.0639 176.991 99.0487C176.991 101.784 176.991 108.603 175.885 112.777L185.892 119.466C187.34 114.356 188.105 105.435 188.105 98.9984C188.105 49.7664 147.221 12 100.453 12C88.2226 12 68.9723 14.6653 50.2148 27.891Z" fill="url(#paint7_linear_94_460)"/>
</g>
<defs>
<filter id="filter0_i_94_460" x="11.8506" y="83.9121" width="135.471" height="104.342" filterUnits="userSpaceOnUse" color-interpolation-filters="sRGB">
<feFlood flood-opacity="0" result="BackgroundImageFix"/>
<feBlend mode="normal" in="SourceGraphic" in2="BackgroundImageFix" result="shape"/>
<feColorMatrix in="SourceAlpha" type="matrix" values="0 0 0 0 0 0 0 0 0 0 0 0 0 0 0 0 0 0 127 0" result="hardAlpha"/>
<feOffset dx="-2" dy="2"/>
<feGaussianBlur stdDeviation="0.5"/>
<feComposite in2="hardAlpha" operator="arithmetic" k2="-1" k3="1"/>
<feColorMatrix type="matrix" values="0 0 0 0 0 0 0 0 0 0 0 0 0 0 0 0 0 0 0.25 0"/>
<feBlend mode="normal" in2="shape" result="effect1_innerShadow_94_460"/>
</filter>
<filter id="filter1_i_94_460" x="3.6" y="36.6947" width="22.1246" height="32.1822" filterUnits="userSpaceOnUse" color-interpolation-filters="sRGB">
<feFlood flood-opacity="0" result="BackgroundImageFix"/>
<feBlend mode="normal" in="SourceGraphic" in2="BackgroundImageFix" result="shape"/>
<feColorMatrix in="SourceAlpha" type="matrix" values="0 0 0 0 0 0 0 0 0 0 0 0 0 0 0 0 0 0 127 0" result="hardAlpha"/>
<feOffset dx="-0.7" dy="-0.8"/>
<feGaussianBlur stdDeviation="0.2"/>
<feComposite in2="hardAlpha" operator="arithmetic" k2="-1" k3="1"/>
<feColorMatrix type="matrix" values="0 0 0 0 0 0 0 0 0 0 0 0 0 0 0 0 0 0 0.25 0"/>
<feBlend mode="normal" in2="shape" result="effect1_innerShadow_94_460"/>
</filter>
<filter id="filter2_i_94_460" x="173.875" y="134.856" width="22.1246" height="32.1822" filterUnits="userSpaceOnUse" color-interpolation-filters="sRGB">
<feFlood flood-opacity="0" result="BackgroundImageFix"/>
<feBlend mode="normal" in="SourceGraphic" in2="BackgroundImageFix" result="shape"/>
<feColorMatrix in="SourceAlpha" type="matrix" values="0 0 0 0 0 0 0 0 0 0 0 0 0 0 0 0 0 0 127 0" result="hardAlpha"/>
<feOffset dx="-0.7" dy="-0.8"/>
<feGaussianBlur stdDeviation="0.2"/>
<feComposite in2="hardAlpha" operator="arithmetic" k2="-1" k3="1"/>
<feColorMatrix type="matrix" values="0 0 0 0 0 0 0 0 0 0 0 0 0 0 0 0 0 0 0.25 0"/>
<feBlend mode="normal" in2="shape" result="effect1_innerShadow_94_460"/>
</filter>
<filter id="filter3_i_94_460" x="27.1352" y="36.6947" width="22.1246" height="32.1822" filterUnits="userSpaceOnUse" color-interpolation-filters="sRGB">
<feFlood flood-opacity="0" result="BackgroundImageFix"/>
<feBlend mode="normal" in="SourceGraphic" in2="BackgroundImageFix" result="shape"/>
<feColorMatrix in="SourceAlpha" type="matrix" values="0 0 0 0 0 0 0 0 0 0 0 0 0 0 0 0 0 0 127 0" result="hardAlpha"/>
<feOffset dx="-0.7" dy="-0.8"/>
<feGaussianBlur stdDeviation="0.2"/>
<feComposite in2="hardAlpha" operator="arithmetic" k2="-1" k3="1"/>
<feColorMatrix type="matrix" values="0 0 0 0 0 0 0 0 0 0 0 0 0 0 0 0 0 0 0.25 0"/>
<feBlend mode="normal" in2="shape" result="effect1_innerShadow_94_460"/>
</filter>
<filter id="filter4_i_94_460" x="150.34" y="134.856" width="22.1246" height="32.1822" filterUnits="userSpaceOnUse" color-interpolation-filters="sRGB">
<feFlood flood-opacity="0" result="BackgroundImageFix"/>
<feBlend mode="normal" in="SourceGraphic" in2="BackgroundImageFix" result="shape"/>
<feColorMatrix in="SourceAlpha" type="matrix" values="0 0 0 0 0 0 0 0 0 0 0 0 0 0 0 0 0 0 127 0" result="hardAlpha"/>
<feOffset dx="-0.7" dy="-0.8"/>
<feGaussianBlur stdDeviation="0.2"/>
<feComposite in2="hardAlpha" operator="arithmetic" k2="-1" k3="1"/>
<feColorMatrix type="matrix" values="0 0 0 0 0 0 0 0 0 0 0 0 0 0 0 0 0 0 0.25 0"/>
<feBlend mode="normal" in2="shape" result="effect1_innerShadow_94_460"/>
</filter>
<filter id="filter5_i_94_460" x="102.994" y="64.7598" width="50.7666" height="73.8066" filterUnits="userSpaceOnUse" color-interpolation-filters="sRGB">
<feFlood flood-opacity="0" result="BackgroundImageFix"/>
<feBlend mode="normal" in="SourceGraphic" in2="BackgroundImageFix" result="shape"/>
<feColorMatrix in="SourceAlpha" type="matrix" values="0 0 0 0 0 0 0 0 0 0 0 0 0 0 0 0 0 0 127 0" result="hardAlpha"/>
<feOffset dx="-2" dy="-2"/>
<feGaussianBlur stdDeviation="0.5"/>
<feComposite in2="hardAlpha" operator="arithmetic" k2="-1" k3="1"/>
<feColorMatrix type="matrix" values="0 0 0 0 0 0 0 0 0 0 0 0 0 0 0 0 0 0 0.25 0"/>
<feBlend mode="normal" in2="shape" result="effect1_innerShadow_94_460"/>
</filter>
<filter id="filter6_i_94_460" x="49.0791" y="64.7598" width="50.7666" height="73.8066" filterUnits="userSpaceOnUse" color-interpolation-filters="sRGB">
<feFlood flood-opacity="0" result="BackgroundImageFix"/>
<feBlend mode="normal" in="SourceGraphic" in2="BackgroundImageFix" result="shape"/>
<feColorMatrix in="SourceAlpha" type="matrix" values="0 0 0 0 0 0 0 0 0 0 0 0 0 0 0 0 0 0 127 0" result="hardAlpha"/>
<feOffset dx="-2" dy="-2"/>
<feGaussianBlur stdDeviation="0.5"/>
<feComposite in2="hardAlpha" operator="arithmetic" k2="-1" k3="1"/>
<feColorMatrix type="matrix" values="0 0 0 0 0 0 0 0 0 0 0 0 0 0 0 0 0 0 0.25 0"/>
<feBlend mode="normal" in2="shape" result="effect1_innerShadow_94_460"/>
</filter>
<filter id="filter7_i_94_460" x="49.2148" y="11" width="138.89" height="108.466" filterUnits="userSpaceOnUse" color-interpolation-filters="sRGB">
<feFlood flood-opacity="0" result="BackgroundImageFix"/>
<feBlend mode="normal" in="SourceGraphic" in2="BackgroundImageFix" result="shape"/>
<feColorMatrix in="SourceAlpha" type="matrix" values="0 0 0 0 0 0 0 0 0 0 0 0 0 0 0 0 0 0 127 0" result="hardAlpha"/>
<feOffset dx="-2" dy="-2"/>
<feGaussianBlur stdDeviation="0.5"/>
<feComposite in2="hardAlpha" operator="arithmetic" k2="-1" k3="1"/>
<feColorMatrix type="matrix" values="0 0 0 0 0 0 0 0 0 0 0 0 0 0 0 0 0 0 0.25 0"/>
<feBlend mode="normal" in2="shape" result="effect1_innerShadow_94_460"/>
</filter>
<linearGradient id="paint0_linear_94_460" x1="152.863" y1="187.303" x2="29.6562" y2="72.5198" gradientUnits="userSpaceOnUse">
<stop stop-color="#EAB52A"/>
<stop offset="1" stop-color="#FFD467"/>
</linearGradient>
<linearGradient id="paint1_linear_94_460" x1="26.6197" y1="68.8917" x2="-3.37654" y2="54.2116" gradientUnits="userSpaceOnUse">
<stop stop-color="#EAB52A"/>
<stop offset="1" stop-color="#FFD467"/>
</linearGradient>
<linearGradient id="paint2_linear_94_460" x1="173.38" y1="135.241" x2="203.377" y2="149.921" gradientUnits="userSpaceOnUse">
<stop stop-color="#EAB52A"/>
<stop offset="1" stop-color="#FFD467"/>
</linearGradient>
<linearGradient id="paint3_linear_94_460" x1="50.1549" y1="68.8917" x2="20.1586" y2="54.2116" gradientUnits="userSpaceOnUse">
<stop stop-color="#EAB52A"/>
<stop offset="1" stop-color="#FFD467"/>
</linearGradient>
<linearGradient id="paint4_linear_94_460" x1="149.845" y1="135.241" x2="179.841" y2="149.921" gradientUnits="userSpaceOnUse">
<stop stop-color="#EAB52A"/>
<stop offset="1" stop-color="#FFD467"/>
</linearGradient>
<linearGradient id="paint5_linear_94_460" x1="101.943" y1="65.726" x2="170.659" y2="99.355" gradientUnits="userSpaceOnUse">
<stop stop-color="#EAB52A"/>
<stop offset="1" stop-color="#FFD467"/>
</linearGradient>
<linearGradient id="paint6_linear_94_460" x1="48.0284" y1="65.726" x2="116.744" y2="99.355" gradientUnits="userSpaceOnUse">
<stop stop-color="#EAB52A"/>
<stop offset="1" stop-color="#FFD467"/>
</linearGradient>
<linearGradient id="paint7_linear_94_460" x1="193.787" y1="119.516" x2="65.8041" y2="1.9424" gradientUnits="userSpaceOnUse">
<stop stop-color="#EAB52A"/>
<stop offset="1" stop-color="#FFD467"/>
</linearGradient>
</defs>
</svg>
