<svg width="200" height="200" viewBox="0 0 200 200" fill="none" xmlns="http://www.w3.org/2000/svg">
<g filter="url(#filter0_i_94_610)">
<path fill-rule="evenodd" clip-rule="evenodd" d="M152.164 18.6986C152.528 19.0783 152.852 19.5672 152.883 19.7853C152.939 20.166 153.53 20.9171 157.327 25.439C158.268 26.5596 160.244 29.2021 161.719 31.3113C163.467 33.8103 165.198 35.9478 166.689 37.447C169.299 40.0708 172.526 42.6963 173.143 42.6963C173.372 42.6963 174.07 43.0199 174.694 43.4154C175.318 43.8109 175.876 44.1345 175.934 44.1345C175.992 44.1345 175.71 43.2447 175.308 42.1571C174.906 41.0696 173.984 38.4539 173.26 36.3447C171.462 31.109 170.544 29.3181 168.703 27.4497C166.791 25.5107 164.49 24.0098 159.769 21.624C156.365 19.9035 152.126 18.0088 151.681 18.0088C151.583 18.0088 151.8 18.3192 152.164 18.6986ZM45.7143 20.3733C39.803 22.5115 34.2326 25.7039 31.4114 28.57C29.4456 30.5668 28.4387 32.5603 26.5568 38.1797C25.3058 41.9159 25.161 42.5441 25.2675 43.7749C25.2902 44.0386 25.2241 44.5098 25.1202 44.8219C24.9984 45.1888 25.0205 45.3583 25.1831 45.3012C25.8298 45.0743 31.7527 40.2101 33.478 38.4892C34.6393 37.3305 36.5025 34.9993 38.1386 32.6576C41.4096 27.9761 42.5412 26.5447 45.4558 23.4017C48.4957 20.1235 49.2858 19.2041 49.046 19.2247C48.9333 19.2343 47.4341 19.7511 45.7143 20.3733ZM172.403 28.8308C172.695 29.3035 172.934 29.8857 172.934 30.1249C172.934 30.3641 173.684 31.9153 174.601 33.572C176.686 37.3382 177.418 38.9911 177.988 41.2113C178.411 42.862 179.408 49.3006 179.408 50.3802C179.408 50.7363 178.931 50.2982 177.723 48.8337C175.598 46.2554 173.748 44.6881 169.354 41.7417C165.942 39.4536 163.87 37.6222 162.367 35.5657C161.957 35.0053 161.591 34.5471 161.552 34.5471C161.514 34.5471 161.536 35.0183 161.601 35.5945C161.673 36.2299 161.614 36.7066 161.451 36.807C160.482 37.4058 161.928 42.3049 163.988 45.4026C165.38 47.4951 166.963 48.8016 172.516 52.441C177.684 55.828 179.345 57.3636 181.693 60.9227C182.556 62.2312 183.455 63.4047 183.69 63.5307C183.926 63.6566 184.322 64.2114 184.571 64.7639L185.025 65.7682L185.208 65.0812C185.309 64.7035 185.522 61.5682 185.681 58.1138C186.094 49.1328 185.61 43.5038 184.107 39.7832C182.383 35.5185 178.783 31.8506 173.302 28.7742L171.871 27.9713L172.403 28.8308ZM27.2215 30.1419C26.4096 30.5978 25.5205 31.0141 25.2456 31.0671C24.3054 31.248 21.9847 32.9762 19.9374 35.0202C17.5121 37.4412 16.2251 39.7044 15.2113 43.3301L14.5509 45.6924L14.5545 54.4409C14.5581 63.1261 14.6998 64.8142 15.3897 64.3881C15.5302 64.3013 15.6398 64.569 15.6539 65.0328C15.6671 65.4691 15.7508 66.0872 15.84 66.4065C15.982 66.9141 16.0904 66.7782 16.7011 65.3279C17.9528 62.3553 19.2621 60.3983 21.5049 58.1467C23.2515 56.3934 24.461 55.4792 27.8479 53.353C34.506 49.1734 36.8739 46.5392 38.3911 41.625C38.9392 39.8489 39.6442 36.1798 39.4704 36.0063C39.4133 35.949 38.981 36.3524 38.51 36.9024C38.0388 37.4525 37.5271 37.9041 37.3724 37.906C37.2178 37.9077 36.39 38.5086 35.5328 39.241C34.6755 39.9735 32.3737 41.654 30.4177 42.9753C26.612 45.5464 24.5812 47.317 22.1168 50.2121C21.2663 51.2114 20.5433 52.0016 20.51 51.9683C20.3404 51.7989 21.9264 42.595 22.3614 41.2252C23.058 39.0316 24.8001 35.6798 26.9978 32.3048C28.0155 30.7421 28.8145 29.4295 28.773 29.3883C28.7318 29.3468 28.0335 29.686 27.2215 30.1419ZM187.441 42.5624C187.719 43.2658 187.849 44.7962 187.947 48.5545C188.062 52.9347 187.997 54.3625 187.462 59.3545C187.122 62.5183 186.762 66.4551 186.66 68.103L186.476 71.099L185.342 68.9318C183.933 66.2411 183.037 65.3027 179.076 62.3687C175.35 59.609 173.228 57.3962 171.678 54.6533L170.543 52.6433L170.539 54.1272C170.537 54.9536 170.418 55.6839 170.269 55.7757C169.643 56.1626 170.992 61.2578 172.518 64.268C173.671 66.5436 174.698 68.0088 178.201 72.3804C182.933 78.2867 184.034 80.0963 185.983 85.1805C186.502 86.5342 187.015 87.5174 187.202 87.5174C187.379 87.5174 187.649 87.922 187.801 88.4163C187.953 88.9107 188.137 89.4769 188.21 89.6746C188.488 90.4291 193.783 68.6171 194.406 64.1482C194.932 60.3801 194.777 55.3318 194.058 52.8362C193.046 49.32 190.972 45.7113 188.435 43.0525L187.066 41.6178L187.441 42.5624ZM11.2926 45.168C9.21671 47.1725 8.58629 47.9555 7.77363 49.5391C5.00954 54.9251 4.61628 60.7099 6.42648 69.3632C7.22883 73.1991 10.8003 87.4858 11.094 88.0342C11.224 88.2772 11.4787 88.4762 11.6597 88.4762C11.8537 88.4762 12.1148 88.9678 12.2961 89.6746C12.4649 90.3337 12.6654 90.873 12.7414 90.873C12.8174 90.873 13.1292 89.8997 13.4339 88.7104C14.1229 86.0218 15.2964 83.0063 16.47 80.9088C17.3584 79.3212 19.5582 76.3493 23.8604 70.9252C26.1358 68.0567 27.9692 64.9269 28.8377 62.4291C29.3586 60.9304 30.3487 56.5228 30.605 54.5608L30.7616 53.3623L29.7506 55.0897C29.1948 56.0401 28.6591 56.7675 28.5608 56.7067C28.4622 56.646 27.4824 57.5796 26.3835 58.7814C25.1761 60.102 23.3887 61.6868 21.866 62.7867C17.2757 66.1033 16.1422 67.3091 14.0502 71.1019L13.5493 72.0096L13.3915 68.9179C13.3049 67.2173 12.9994 63.8845 12.7129 61.5116C12.3561 58.5558 12.1861 55.7254 12.1726 52.5234L12.153 47.8496L13.0273 45.3329C13.508 43.9487 13.8836 42.7958 13.8615 42.7711C13.8394 42.7464 12.6834 43.825 11.2926 45.168ZM197.417 69.1851C197.259 69.81 196.926 70.4962 196.676 70.71C196.367 70.9737 195.79 72.7018 194.884 76.0696C193.334 81.8347 192.813 83.3496 190.863 87.7571C190.075 89.5368 188.999 92.0715 188.471 93.3897C187.943 94.708 187.4 96.0562 187.266 96.3858C187.053 96.9059 186.943 96.6212 186.433 94.2286C186.109 92.7126 185.465 90.4476 185.001 89.1952C183.43 84.9557 176.242 71.652 176.1 72.721C176.061 73.0153 175.858 73.8206 175.649 74.5107C175.322 75.59 175.306 76.164 175.54 78.6196C176.103 84.5504 176.994 88.6725 179.418 96.5572C181.178 102.279 181.563 104.647 181.565 109.736C181.566 112.84 181.635 113.658 181.907 113.811C182.094 113.916 182.283 114.375 182.327 114.831L182.406 115.659L185.214 112.554C193.284 103.629 197.093 97.4488 199.238 89.7944C199.747 87.9757 199.861 86.9604 199.963 83.323C200.102 78.3528 199.875 76.061 198.817 71.7558C197.876 67.9261 197.779 67.7482 197.417 69.1851ZM2.9104 70.1841C2.74638 70.6872 2.36871 71.3456 2.07113 71.6472C0.929233 72.8037 -0.00667829 78.0254 3.59016e-05 83.2031C0.00914802 90.3601 2.01765 96.322 6.86122 103.571C10.056 108.353 15.8698 115.081 16.8061 115.081C17.0054 115.081 17.5521 115.456 18.0209 115.913L18.8736 116.746L18.7096 114.775C18.4264 111.371 18.4955 106.657 18.8619 104.415C19.0556 103.229 19.7611 100.532 20.4294 98.4231C22.0478 93.3166 23.183 88.9556 23.7676 85.6C24.3534 82.2372 24.9836 76.5305 24.9773 74.6447L24.9728 73.2562L24.2699 74.3748C23.8834 74.9898 23.3688 75.5562 23.1264 75.6331C22.5497 75.816 21.1488 77.9785 18.9211 82.1245C15.9328 87.6862 14.1881 92.1872 13.4332 96.2832C13.2769 97.1305 13.087 97.8237 13.0107 97.8232C12.9347 97.8229 12.5609 96.933 12.1803 95.8458C11.7995 94.7586 10.5974 91.8737 9.50877 89.4349C7.17967 84.2175 5.95145 80.4796 4.47313 74.1107C3.87844 71.5487 3.35066 69.4114 3.3003 69.3608C3.24971 69.3105 3.07442 69.681 2.9104 70.1841ZM176.162 96.6629C175.945 97.1173 175.535 97.5916 175.25 97.7165C173.971 98.2779 173.028 102.815 172.213 112.325C171.306 122.909 170.723 126.714 169.104 132.617C168.44 135.035 168.175 136.455 168.209 137.407L168.258 138.759L168.868 138.444C171.573 137.048 179.21 131.978 183.245 128.899C186.705 126.259 192.156 120.757 193.847 118.197C197.5 112.668 198.977 108.054 199.219 101.419L199.345 97.9437L198.637 99.0223C198.246 99.6155 197.714 100.227 197.454 100.382C197.193 100.536 196.141 102.046 195.117 103.737C191.807 109.2 190.214 111.111 185.457 115.329C183.575 116.997 181.32 119.191 180.446 120.202C179.572 121.213 178.823 122.007 178.782 121.965C178.74 121.923 178.822 121.14 178.965 120.224C179.123 119.21 179.177 116.545 179.105 113.405C178.997 108.788 178.879 107.625 177.975 102.258C177.42 98.9624 176.874 96.1693 176.761 96.0512C176.644 95.9285 176.387 96.1907 176.162 96.6629ZM24.0253 97.8138C23.8827 98.3435 23.6407 98.7512 23.4875 98.7198C23.0695 98.634 22.6835 100.01 22.0156 103.963C21.039 109.745 20.8284 112.553 20.9603 118.04L21.0812 123.076L20.6045 122.374C20.3424 121.988 18.6629 120.27 16.8723 118.557C8.49877 110.542 7.55854 109.424 4.45658 103.792C3.70147 102.421 2.80921 100.814 2.4735 100.221L1.86322 99.1422L1.64741 100.221C1.52871 100.814 1.3081 101.377 1.15727 101.472C0.802141 101.695 0.843866 104.562 1.23665 106.932C2.57133 114.985 7.17607 122.056 15.5592 128.924C19.0305 131.767 28.6776 138.176 29.9238 138.466C30.305 138.555 31.0841 138.893 31.6551 139.219C32.2258 139.545 32.7346 139.769 32.7857 139.718C32.8365 139.667 32.3502 138.013 31.7049 136.042C29.6643 129.809 29.084 126.358 27.858 113.164C27.4597 108.879 26.9323 104.403 26.6861 103.217C26.236 101.049 24.8946 97.2273 24.4977 96.9821C24.3807 96.91 24.168 97.2841 24.0253 97.8138ZM167.737 118.08C163.699 122.12 160.737 127.49 158.174 135.418C155.748 142.928 154.942 144.61 151.311 149.757C149.385 152.489 148.416 154.629 149.106 154.629C150.382 154.629 165.536 150.532 170.443 148.86C180.837 145.318 185.669 141.849 188.307 136.033C189.025 134.452 191.426 126.47 191.763 124.549L191.931 123.59L191.291 124.429C190.939 124.89 190.436 125.613 190.173 126.035C189.91 126.456 189.565 126.751 189.406 126.69C189.246 126.629 188.145 127.727 186.96 129.129C182.75 134.107 180.439 135.884 175.452 137.978C171.766 139.526 168.108 141.286 165.909 142.57C164.881 143.171 163.99 143.612 163.929 143.551C163.868 143.49 164.248 142.521 164.774 141.399C165.981 138.824 166.263 137.581 167.181 130.781C167.984 124.823 168.815 120.248 169.571 117.614C169.833 116.7 170.023 115.935 169.992 115.916C169.961 115.896 168.947 116.87 167.737 118.08ZM30.9796 116.644C30.981 116.773 31.1333 117.445 31.3174 118.137C31.5018 118.829 31.5546 119.396 31.4345 119.396C31.0968 119.396 31.1762 120.702 31.6966 123.71C31.9589 125.226 32.4466 128.569 32.7804 131.14C33.5638 137.172 33.8964 138.783 34.9263 141.531C35.814 143.9 35.9097 144.323 35.5589 144.323C35.4414 144.323 34.3712 143.748 33.1806 143.044C31.9901 142.341 30.0628 141.351 28.8982 140.844C20.0875 137.008 19.7779 136.836 16.9332 134.182C14.6857 132.085 12.6004 129.588 10.6389 126.644C9.91378 125.555 9.27354 124.711 9.21647 124.767C9.1594 124.824 9.24668 125.469 9.41022 126.2C9.62411 127.155 9.6349 127.616 9.44883 127.84C8.84359 128.569 10.8238 135.426 12.5328 138.519C15.207 143.359 20.4191 146.779 29.8202 149.862C35.7972 151.822 50.2702 155.588 51.8259 155.588C52.2595 155.588 52.0686 155.235 50.5524 153.234C46.2376 147.539 44.2423 143.905 42.6985 138.93C40.1586 130.745 38.9908 128.127 35.5879 122.991C33.0924 119.224 30.9755 116.309 30.9796 116.644ZM154.655 137.252C153.77 137.845 152.892 138.331 152.704 138.331C152.307 138.331 149.531 140.284 146.443 142.735C145.259 143.674 142.215 146.399 139.676 148.79C134.677 153.498 134.064 153.902 128.45 156.176C124.603 157.735 122.006 159.183 123.057 159.183C123.189 159.183 123.297 159.334 123.297 159.519C123.297 159.743 123.911 159.985 125.155 160.249C128.005 160.855 128.845 161.041 133.402 162.069C147.758 165.309 156.319 165.379 162.503 162.308C163.558 161.784 165.177 160.799 166.1 160.119C167.61 159.006 177.347 149.373 177.155 149.181C177.111 149.137 175.958 149.81 174.592 150.676C173.226 151.542 171.835 152.316 171.502 152.396C171.169 152.476 170.032 152.972 168.977 153.499C162.616 156.672 162.127 156.775 152.093 157.033C147.555 157.149 143.538 157.311 143.166 157.393C142.438 157.553 141.521 157.355 141.521 157.038C141.521 156.931 142.211 156.393 143.054 155.844C144.718 154.761 146.755 152.744 147.911 151.034C148.312 150.441 149.805 147.852 151.228 145.282C152.651 142.711 154.357 139.691 155.02 138.57C156.45 136.15 156.437 136.173 156.34 136.173C156.298 136.173 155.539 136.659 154.655 137.252ZM45.1528 138.107C45.4856 138.691 45.7175 139.348 45.6678 139.566C45.5076 140.271 50.3649 149.461 52.4163 152.334C53.0227 153.183 54.4349 154.722 55.5545 155.752C56.6738 156.782 57.5908 157.787 57.592 157.985C57.5939 158.295 56.881 158.336 52.3784 158.287C44.5679 158.202 40.0308 157.85 37.5202 157.134C34.8575 156.376 29.3885 153.697 26.4206 151.698C25.1677 150.855 23.9807 150.068 23.7829 149.949C23.5851 149.831 24.1169 150.509 24.9646 151.456C25.8125 152.403 26.6424 153.501 26.8089 153.897C27.198 154.822 30.8331 158.594 33.0706 160.395C40.0138 165.981 49.2714 167.015 64.0199 163.851C67.6216 163.078 76.5416 160.726 77.6917 160.246L78.5755 159.877L75.2184 158.607C66.2368 155.211 65.6078 154.841 60.7357 150.075C57.2594 146.674 54.4291 144.298 49.3208 140.492C44.2598 136.722 44.4147 136.811 45.1528 138.107ZM106.152 157.881C104.701 158.219 102.431 158.862 101.106 159.31L98.6989 160.123L97.1499 159.639C91.1915 157.778 87.6155 157.833 80.2541 159.899C78.4077 160.417 76.4428 160.956 75.8879 161.097C75.3331 161.238 74.8122 161.461 74.7307 161.594C74.2125 162.431 65.9006 165.885 62.9828 166.474C56.7345 167.736 49.1993 167.903 41.4206 166.951L39.9948 166.776L41.5429 168.316C43.2675 170.031 45.517 171.465 49.8004 173.578C54.1522 175.725 59.0588 176.828 63.331 176.621C68.029 176.393 71.4383 174.879 78.5098 169.879C83.5589 166.309 86.0153 164.853 88.2346 164.114C90.3856 163.398 90.4453 163.39 90.4453 163.828C90.4453 164.228 89.0319 165.309 84.4505 168.413C76.6929 173.669 72.4608 177.006 72.4608 177.867C72.4608 178.874 73.7324 180.131 75.7748 181.142C75.9774 181.242 77.2747 180.137 79.3717 178.079C86.1079 171.468 91.2193 167.543 96.5976 164.853L98.7932 163.755L100.991 164.694C107.073 167.292 112.409 171.145 120.487 178.772C122.044 180.242 123.534 181.425 124.209 181.726L125.335 182.229L126.607 180.833C128.625 178.618 128.702 178.923 125.512 176.507C119.116 171.661 113.046 167.556 107.71 164.465C106.062 163.51 104.662 162.68 104.6 162.621C104.037 162.083 107.88 161.863 109.868 162.319C112.197 162.853 116.171 165.033 121.129 168.496C128.413 173.584 131.35 174.917 136.529 175.487C141.015 175.98 145.418 174.989 150.872 172.257C154.512 170.434 159.897 167.001 160.734 165.97C160.916 165.746 160.949 165.632 160.808 165.716C160.667 165.8 158.347 166.049 155.652 166.269C144.259 167.198 136.847 166.01 126.905 161.661C119.022 158.213 116.79 157.565 112.207 157.394C109.115 157.278 108.539 157.324 106.152 157.881Z" fill="url(#paint0_linear_94_610)"/>
</g>
<g filter="url(#filter1_i_94_610)">
<path fill-rule="evenodd" clip-rule="evenodd" d="M102.094 145.371C102.314 145.269 102.532 145.167 102.74 145.077C151.099 124.171 153.95 76.5512 154.478 52.2661V45.8253C154.478 44.6638 153.544 43.8171 152.366 43.7136C142.757 42.8689 136.317 33.0493 136.317 25.2358C136.317 24.6023 136.19 23.8209 135.261 23.2296C126.708 17.7871 107.006 17 98.7275 17C90.4495 17 71.2748 18.1615 65.1508 23.2296C64.4117 23.8413 64.1389 24.2867 64.0949 25.1302C63.567 35.2666 56.2815 42.3409 48.8904 43.608C46.3841 44.0376 45.7228 44.7694 45.7228 46.3532C45.7228 118.153 75.9207 134.202 97.3549 145.077C98.1873 145.5 99.6144 146.028 100.206 146.028C100.687 146.028 101.399 145.695 102.094 145.371ZM102.48 132.868C101.699 133.323 100.94 133.766 100.206 134.201C99.7075 133.927 99.1984 133.648 98.6795 133.364C83.2515 124.92 59.1931 111.752 57.8652 53.3216C66.2066 50.0484 72.9641 42.7629 74.6535 32.4154C81.8335 29.4589 93.0046 29.2477 101.789 29.2477C110.574 29.2477 121.534 30.726 125.758 32.4154C127.342 39.4897 130.72 48.2534 142.229 53.3216C141.827 109.917 117.978 123.828 102.48 132.868Z" fill="url(#paint1_linear_94_610)"/>
</g>
<defs>
<filter id="filter0_i_94_610" x="-1" y="17.0088" width="201" height="165.22" filterUnits="userSpaceOnUse" color-interpolation-filters="sRGB">
<feFlood flood-opacity="0" result="BackgroundImageFix"/>
<feBlend mode="normal" in="SourceGraphic" in2="BackgroundImageFix" result="shape"/>
<feColorMatrix in="SourceAlpha" type="matrix" values="0 0 0 0 0 0 0 0 0 0 0 0 0 0 0 0 0 0 127 0" result="hardAlpha"/>
<feOffset dx="-2" dy="-2"/>
<feGaussianBlur stdDeviation="0.5"/>
<feComposite in2="hardAlpha" operator="arithmetic" k2="-1" k3="1"/>
<feColorMatrix type="matrix" values="0 0 0 0 0 0 0 0 0 0 0 0 0 0 0 0 0 0 0.25 0"/>
<feBlend mode="normal" in2="shape" result="effect1_innerShadow_94_610"/>
</filter>
<filter id="filter1_i_94_610" x="44.7227" y="16" width="109.755" height="130.027" filterUnits="userSpaceOnUse" color-interpolation-filters="sRGB">
<feFlood flood-opacity="0" result="BackgroundImageFix"/>
<feBlend mode="normal" in="SourceGraphic" in2="BackgroundImageFix" result="shape"/>
<feColorMatrix in="SourceAlpha" type="matrix" values="0 0 0 0 0 0 0 0 0 0 0 0 0 0 0 0 0 0 127 0" result="hardAlpha"/>
<feOffset dx="-2" dy="-2"/>
<feGaussianBlur stdDeviation="0.5"/>
<feComposite in2="hardAlpha" operator="arithmetic" k2="-1" k3="1"/>
<feColorMatrix type="matrix" values="0 0 0 0 0 0 0 0 0 0 0 0 0 0 0 0 0 0 0.25 0"/>
<feBlend mode="normal" in2="shape" result="effect1_innerShadow_94_610"/>
</filter>
<linearGradient id="paint0_linear_94_610" x1="208.242" y1="182.306" x2="13.7925" y2="12.7532" gradientUnits="userSpaceOnUse">
<stop stop-color="#EAB52A"/>
<stop offset="1" stop-color="#FFD467"/>
</linearGradient>
<linearGradient id="paint1_linear_94_610" x1="41.2409" y1="146.088" x2="177.682" y2="63.7493" gradientUnits="userSpaceOnUse">
<stop stop-color="#EAB52A"/>
<stop offset="1" stop-color="#FFD467"/>
</linearGradient>
</defs>
</svg>
