<svg width="200" height="200" viewBox="0 0 200 200" fill="none" xmlns="http://www.w3.org/2000/svg">
<g filter="url(#filter0_i_226_154)">
<path fill-rule="evenodd" clip-rule="evenodd" d="M58.0028 28.0676L66.6563 9.67887L84.7746 18.3324L99.6479 4L113.98 18.3324L132.639 9.67887L141.293 28.0676L161.575 26.9859L163.468 46.7268L182.938 52.4056L177.53 71.6056L194.296 83.7747L182.938 100.541L194.296 116.766L177.53 128.394L182.668 148.135L163.197 153.273L161.575 174.096L141.293 172.473L132.369 190.321L114.251 181.397L99.6479 196L85.0451 181.668L66.9268 190.051L58.0028 171.932L37.9915 173.285L35.8282 153.273L16.6282 147.865L21.7662 128.394L5 116.496L16.6282 100L5 83.7747L22.0366 71.6056L16.6282 52.4056L36.0986 46.4563L37.7211 26.7155L58.0028 28.0676ZM99.9187 166.795C136.808 166.795 166.713 136.89 166.713 100C166.713 63.1107 136.808 33.2059 99.9187 33.2059C63.0292 33.2059 33.1243 63.1107 33.1243 100C33.1243 136.89 63.0292 166.795 99.9187 166.795Z" fill="url(#paint0_linear_226_154)"/>
</g>
<g filter="url(#filter1_i_226_154)">
<path fill-rule="evenodd" clip-rule="evenodd" d="M103.287 72.3031C103.287 73.5467 102.613 74.6328 101.611 75.2164C101.987 75.7862 102.368 76.3768 102.755 76.978L102.755 76.9781C106.168 82.2755 110.112 88.3974 116.388 88.3974C121.223 88.3974 127.168 84.7006 133.855 80.2462C133.461 79.695 133.23 79.0204 133.23 78.2917C133.23 76.4313 134.738 74.9232 136.599 74.9232C138.459 74.9232 139.967 76.4313 139.967 78.2917C139.967 80.1522 138.459 81.6603 136.599 81.6603C136.17 81.6603 135.761 81.5804 135.384 81.4347C129.449 91.0579 125.745 109.415 125.745 120.586H74.0935C74.0935 113.428 70.3796 94.9046 64.4316 81.443C64.0608 81.5834 63.6587 81.6603 63.2387 81.6603C61.3783 81.6603 59.8701 80.1522 59.8701 78.2917C59.8701 76.4313 61.3783 74.9232 63.2387 74.9232C65.0991 74.9232 66.6073 76.4313 66.6073 78.2917C66.6073 79.0905 66.3292 79.8244 65.8647 80.4018C66.8204 81.0053 67.7667 81.6252 68.7051 82.24L68.7052 82.24C73.5078 85.386 78.1049 88.3974 82.7021 88.3974C89.0313 88.3974 92.7682 82.8423 97.9649 75.0476C97.1085 74.4368 96.5501 73.4352 96.5501 72.3031C96.5501 70.4427 98.0582 68.9346 99.9186 68.9346C101.779 68.9346 103.287 70.4427 103.287 72.3031ZM81.5484 97.2331C83.5975 100.088 84.3754 103.036 83.2861 103.818C82.1967 104.6 79.6525 102.919 77.6035 100.064C75.5545 97.2095 74.7765 94.2614 75.8659 93.4795C76.9552 92.6976 79.4994 94.3782 81.5484 97.2331ZM116.488 103.818C115.399 103.036 116.177 100.088 118.226 97.2331C120.275 94.3782 122.819 92.6976 123.908 93.4795C124.998 94.2614 124.22 97.2095 122.171 100.064C120.122 102.919 117.577 104.6 116.488 103.818ZM95.0531 102.621C95.0531 108.409 97.2316 113.101 99.9189 113.101C102.606 113.101 104.785 108.409 104.785 102.621C104.785 96.8326 102.606 92.1406 99.9189 92.1406C97.2316 92.1406 95.0531 96.8326 95.0531 102.621ZM69.9755 124.329C68.1151 124.329 66.6069 125.837 66.6069 127.698C66.6069 129.558 68.1151 131.066 69.9755 131.066H129.113C130.973 131.066 132.481 129.558 132.481 127.698C132.481 125.837 130.973 124.329 129.113 124.329H69.9755Z" fill="url(#paint1_linear_226_154)"/>
</g>
<defs>
<filter id="filter0_i_226_154" x="4" y="3" width="190.296" height="193" filterUnits="userSpaceOnUse" color-interpolation-filters="sRGB">
<feFlood flood-opacity="0" result="BackgroundImageFix"/>
<feBlend mode="normal" in="SourceGraphic" in2="BackgroundImageFix" result="shape"/>
<feColorMatrix in="SourceAlpha" type="matrix" values="0 0 0 0 0 0 0 0 0 0 0 0 0 0 0 0 0 0 127 0" result="hardAlpha"/>
<feOffset dx="-2" dy="-2"/>
<feGaussianBlur stdDeviation="0.5"/>
<feComposite in2="hardAlpha" operator="arithmetic" k2="-1" k3="1"/>
<feColorMatrix type="matrix" values="0 0 0 0 0 0 0 0 0 0 0 0 0 0 0 0 0 0 0.25 0"/>
<feBlend mode="normal" in2="shape" result="effect1_innerShadow_226_154"/>
</filter>
<filter id="filter1_i_226_154" x="58.8701" y="67.9346" width="81.0967" height="63.1318" filterUnits="userSpaceOnUse" color-interpolation-filters="sRGB">
<feFlood flood-opacity="0" result="BackgroundImageFix"/>
<feBlend mode="normal" in="SourceGraphic" in2="BackgroundImageFix" result="shape"/>
<feColorMatrix in="SourceAlpha" type="matrix" values="0 0 0 0 0 0 0 0 0 0 0 0 0 0 0 0 0 0 127 0" result="hardAlpha"/>
<feOffset dx="-2" dy="-2"/>
<feGaussianBlur stdDeviation="0.5"/>
<feComposite in2="hardAlpha" operator="arithmetic" k2="-1" k3="1"/>
<feColorMatrix type="matrix" values="0 0 0 0 0 0 0 0 0 0 0 0 0 0 0 0 0 0 0.25 0"/>
<feBlend mode="normal" in2="shape" result="effect1_innerShadow_226_154"/>
</filter>
<linearGradient id="paint0_linear_226_154" x1="202.097" y1="196.09" x2="-14.1343" y2="43.4558" gradientUnits="userSpaceOnUse">
<stop stop-color="#EAB52A"/>
<stop offset="1" stop-color="#FFD467"/>
</linearGradient>
<linearGradient id="paint1_linear_226_154" x1="143.268" y1="131.095" x2="69.2454" y2="62.7732" gradientUnits="userSpaceOnUse">
<stop stop-color="#EAB52A"/>
<stop offset="1" stop-color="#FFD467"/>
</linearGradient>
</defs>
</svg>
