<svg width="40" height="41" viewBox="0 0 40 41" fill="none" xmlns="http://www.w3.org/2000/svg">
<path fill-rule="evenodd" clip-rule="evenodd" d="M20.8244 1.59277C21.2165 1.59277 21.4125 1.59277 21.5622 1.66907C21.694 1.73618 21.801 1.84327 21.8681 1.97498C21.9444 2.12472 21.9444 2.32074 21.9444 2.71277V7.13944C21.9444 7.53148 21.9444 7.72749 21.8681 7.87723C21.801 8.00895 21.694 8.11603 21.5622 8.18314C21.4125 8.25944 21.2165 8.25944 20.8244 8.25944H19.1756C18.7835 8.25944 18.5875 8.25944 18.4378 8.18314C18.306 8.11603 18.199 8.00895 18.1319 7.87723C18.0556 7.72749 18.0556 7.53148 18.0556 7.13944V2.71277C18.0556 2.32074 18.0556 2.12472 18.1319 1.97498C18.199 1.84327 18.306 1.73618 18.4378 1.66907C18.5875 1.59277 18.7835 1.59277 19.1756 1.59277H20.8244ZM11.1627 3.57076C11.3513 3.46186 11.4456 3.40741 11.5389 3.40253C11.6209 3.39823 11.7021 3.42001 11.771 3.46473C11.8493 3.51558 11.9038 3.60989 12.0127 3.79851L14.7238 8.49429C14.8327 8.68291 14.8871 8.77722 14.892 8.87046C14.8963 8.95247 14.8745 9.03374 14.8298 9.10262C14.779 9.18092 14.6846 9.23537 14.496 9.34427L12.2059 10.6665C12.0173 10.7754 11.9229 10.8298 11.8297 10.8347C11.7477 10.839 11.6664 10.8172 11.5975 10.7725C11.5192 10.7217 11.4648 10.6274 11.3559 10.4387L8.64479 5.74296C8.53589 5.55434 8.48144 5.46003 8.47655 5.36679C8.47225 5.28478 8.49403 5.20351 8.53876 5.13464C8.58961 5.05633 8.68392 5.00188 8.87254 4.89299L11.1627 3.57076ZM3.30034 10.4652C3.40924 10.2766 3.46369 10.1823 3.54199 10.1314C3.61087 10.0867 3.69214 10.0649 3.77415 10.0692C3.86739 10.0741 3.9617 10.1285 4.15031 10.2374L8.8461 12.9485C9.03472 13.0574 9.12903 13.1119 9.17988 13.1902C9.2246 13.2591 9.24638 13.3403 9.24208 13.4223C9.2372 13.5156 9.18275 13.6099 9.07385 13.7985L7.75162 16.0887C7.64272 16.2773 7.58828 16.3716 7.50997 16.4224C7.4411 16.4672 7.35983 16.489 7.27782 16.4847C7.18458 16.4798 7.09027 16.4253 6.90165 16.3164L2.20587 13.6053C2.01725 13.4964 1.92294 13.442 1.87209 13.3637C1.82736 13.2948 1.80559 13.2135 1.80989 13.1315C1.81477 13.0383 1.86922 12.944 1.97812 12.7553L3.30034 10.4652ZM0 20.5482C0 20.3304 0 20.2215 0.0423863 20.1383C0.0796704 20.0651 0.139163 20.0056 0.212337 19.9684C0.295525 19.926 0.404424 19.926 0.622222 19.926H6.04444C6.26224 19.926 6.37114 19.926 6.45433 19.9684C6.5275 20.0056 6.587 20.0651 6.62428 20.1383C6.66667 20.2215 6.66667 20.3304 6.66667 20.5482V23.1926C6.66667 23.4104 6.66667 23.5193 6.62428 23.6025C6.587 23.6757 6.5275 23.7352 6.45433 23.7725C6.37114 23.8149 6.26224 23.8149 6.04444 23.8149H0.622222C0.404424 23.8149 0.295525 23.8149 0.212337 23.7725C0.139163 23.7352 0.0796704 23.6757 0.0423863 23.6025C0 23.5193 0 23.4104 0 23.1926V20.5482ZM1.86957 30.0885C1.87445 30.1817 1.9289 30.276 2.0378 30.4646L3.36002 32.7548C3.46892 32.9434 3.52337 33.0377 3.60167 33.0886C3.67055 33.1333 3.75182 33.1551 3.83383 33.1508C3.92707 33.1459 4.02138 33.0914 4.20999 32.9825L8.90576 30.2714L8.90579 30.2714L8.90583 30.2714C9.09441 30.1625 9.18871 30.1081 9.23955 30.0298C9.28428 29.9609 9.30606 29.8796 9.30176 29.7976C9.29687 29.7044 9.24242 29.6101 9.13352 29.4215L7.8113 27.1313C7.7024 26.9427 7.64795 26.8484 7.56965 26.7975C7.50078 26.7528 7.41951 26.731 7.3375 26.7353C7.24426 26.7402 7.14996 26.7947 6.96135 26.9035L6.96133 26.9036L2.26555 29.6147C2.07693 29.7236 1.98262 29.778 1.93177 29.8563C1.88704 29.9252 1.86527 30.0065 1.86957 30.0885ZM38.023 30.0885C38.0181 30.1817 37.9637 30.276 37.8548 30.4646L36.5326 32.7548C36.4237 32.9434 36.3692 33.0377 36.2909 33.0886C36.222 33.1333 36.1408 33.1551 36.0587 33.1508C35.9655 33.1459 35.8712 33.0914 35.6826 32.9825L30.9868 30.2714C30.7982 30.1625 30.7039 30.1081 30.653 30.0298C30.6083 29.9609 30.5865 29.8796 30.5908 29.7976C30.5957 29.7044 30.6502 29.6101 30.7591 29.4215L32.0813 27.1313L32.0813 27.1312C32.1902 26.9427 32.2446 26.8484 32.3229 26.7975C32.3918 26.7528 32.4731 26.731 32.5551 26.7353C32.6483 26.7402 32.7426 26.7947 32.9312 26.9036L37.627 29.6147C37.8156 29.7236 37.91 29.778 37.9608 29.8563C38.0055 29.9252 38.0273 30.0065 38.023 30.0885ZM39.8502 20.1383C39.8926 20.2215 39.8926 20.3304 39.8926 20.5482V23.1926C39.8926 23.4104 39.8926 23.5193 39.8502 23.6025C39.8129 23.6757 39.7534 23.7352 39.6802 23.7725C39.5971 23.8149 39.4882 23.8149 39.2704 23.8149H33.8481C33.6303 23.8149 33.5214 23.8149 33.4382 23.7725C33.3651 23.7352 33.3056 23.6757 33.2683 23.6025C33.2259 23.5193 33.2259 23.4104 33.2259 23.1926V20.5482C33.2259 20.3304 33.2259 20.2215 33.2683 20.1383C33.3056 20.0651 33.3651 20.0056 33.4382 19.9684C33.5214 19.926 33.6303 19.926 33.8481 19.926H39.2704C39.4882 19.926 39.5971 19.926 39.6802 19.9684C39.7534 20.0056 39.8129 20.0651 39.8502 20.1383ZM36.3506 10.1314C36.4289 10.1823 36.4833 10.2766 36.5922 10.4652L37.9145 12.7553C38.0234 12.944 38.0778 13.0383 38.0827 13.1315C38.087 13.2135 38.0652 13.2948 38.0205 13.3637C37.9696 13.442 37.8753 13.4964 37.6867 13.6053L32.9909 16.3164C32.8023 16.4253 32.708 16.4798 32.6148 16.4847C32.5327 16.489 32.4515 16.4672 32.3826 16.4224C32.3043 16.3716 32.2499 16.2773 32.141 16.0887L32.141 16.0887L30.8187 13.7985C30.7098 13.6099 30.6554 13.5156 30.6505 13.4223C30.6462 13.3403 30.668 13.2591 30.7127 13.1902C30.7636 13.1119 30.8579 13.0574 31.0465 12.9485L35.7423 10.2374C35.9309 10.1285 36.0252 10.0741 36.1184 10.0692C36.2004 10.0649 36.2817 10.0867 36.3506 10.1314ZM28.3537 3.40253C28.447 3.40741 28.5413 3.46186 28.7299 3.57076L31.02 4.89299C31.2087 5.00188 31.303 5.05633 31.3538 5.13464C31.3985 5.20351 31.4203 5.28478 31.416 5.36679C31.4111 5.46003 31.3567 5.55433 31.2478 5.74293L31.2478 5.74296L28.5367 10.4387C28.4278 10.6274 28.3733 10.7217 28.295 10.7725C28.2262 10.8172 28.1449 10.839 28.0629 10.8347C27.9696 10.8298 27.8753 10.7754 27.6867 10.6665L25.3966 9.34427C25.2079 9.23537 25.1136 9.18092 25.0628 9.10262C25.018 9.03374 24.9963 8.95247 25.0006 8.87046C25.0055 8.77722 25.0599 8.68291 25.1688 8.49429L27.8799 3.79851C27.9888 3.60989 28.0433 3.51558 28.1216 3.46473C28.1904 3.42001 28.2717 3.39823 28.3537 3.40253ZM26.6663 21.5924C26.6663 25.2743 23.6816 28.2591 19.9997 28.2591C16.3178 28.2591 13.333 25.2743 13.333 21.5924C13.333 17.9105 16.3178 14.9258 19.9997 14.9258C23.6816 14.9258 26.6663 17.9105 26.6663 21.5924ZM9.44434 37.9813C9.44434 38.8702 10.5554 39.9258 11.3888 39.9258H28.611C29.7221 39.9258 30.5554 38.8147 30.5554 37.9813V36.3147C30.5554 32.4258 24.7221 29.9258 19.7221 29.9258C14.7221 29.9258 9.44434 32.9813 9.44434 36.3147V37.9813Z" fill="url(#paint0_linear_53_158)"/>
<defs>
<linearGradient id="paint0_linear_53_158" x1="30.5" y1="42.4814" x2="5" y2="1.48145" gradientUnits="userSpaceOnUse">
<stop stop-color="#CF9809"/>
<stop offset="0.62121" stop-color="#E7B227"/>
<stop offset="1" stop-color="#FDC942"/>
</linearGradient>
</defs>
</svg>
