<svg width="40" height="41" viewBox="0 0 40 41" fill="none" xmlns="http://www.w3.org/2000/svg">
<path fill-rule="evenodd" clip-rule="evenodd" d="M12.4867 8.00346C15.2461 5.47642 16.6258 4.2129 18.1991 3.75747C19.4706 3.38944 20.8203 3.38944 22.0918 3.75747C23.6651 4.2129 25.0448 5.47642 27.8042 8.00345L33.7881 13.4835C36.7162 16.165 38.1803 17.5058 38.28 18.6721C38.359 19.5969 38.0056 20.5063 37.3227 21.1349C36.7437 21.6678 35.6569 21.8425 33.8006 21.8997V35.0105C33.8006 36.6674 32.4574 38.0105 30.8006 38.0105H9.49003C7.83318 38.0105 6.49003 36.6674 6.49003 35.0105V21.8997C4.63388 21.8425 3.54713 21.6678 2.96823 21.1349C2.28532 20.5063 1.93185 19.5969 2.01092 18.6721C2.11063 17.5058 3.57466 16.165 6.50273 13.4835L12.4867 8.00346ZM16.2004 25.2662C15.5301 25.2662 14.9866 25.8096 14.9866 26.48V34.3697H24.6971V26.48C24.6971 25.8096 24.1536 25.2662 23.4833 25.2662H16.2004Z" fill="url(#paint0_linear_53_245)"/>
<defs>
<linearGradient id="paint0_linear_53_245" x1="29.7463" y1="40.3126" x2="6.87785" y2="3.17839" gradientUnits="userSpaceOnUse">
<stop stop-color="#CF9809"/>
<stop offset="0.62121" stop-color="#E7B227"/>
<stop offset="1" stop-color="#FDC942"/>
</linearGradient>
</defs>
</svg>
