<svg width="40" height="41" viewBox="0 0 40 41" fill="none" xmlns="http://www.w3.org/2000/svg">
<path d="M14.5977 11.1483V21.6245H9.83579C8.88365 21.6245 8.8835 22.5769 9.3596 23.0531L18.8834 35.9102C19.5977 36.6245 20.0739 36.3864 20.5501 35.9102L30.312 23.0531C30.8834 22.4816 30.5501 21.6245 29.8358 21.6245H25.0739V11.1483C25.0739 10.3864 24.3596 9.71973 23.6453 9.71973H16.0263C15.2644 9.71973 14.5977 10.434 14.5977 11.1483Z" fill="url(#paint0_linear_53_313)"/>
<path d="M3.06569 5.24748V10.8651H0.435715C-0.0901486 10.8651 -0.0902309 11.3758 0.172717 11.6311L5.43267 18.5254C5.82717 18.9084 6.09017 18.7808 6.35316 18.5254L11.7446 11.6311C12.0602 11.3247 11.8761 10.8651 11.4816 10.8651H8.85164V5.24748C8.85164 4.83893 8.45715 4.48145 8.06265 4.48145H3.85469C3.43389 4.48145 3.06569 4.86446 3.06569 5.24748Z" fill="url(#paint1_linear_53_313)" fill-opacity="0.6"/>
<path d="M31.1614 5.24748V10.8651H28.5314C28.0056 10.8651 28.0055 11.3758 28.2684 11.6311L33.5284 18.5254C33.9229 18.9084 34.1859 18.7808 34.4489 18.5254L39.8403 11.6311C40.1559 11.3247 39.9718 10.8651 39.5773 10.8651H36.9473V5.24748C36.9473 4.83893 36.5528 4.48145 36.1584 4.48145H31.9504C31.5296 4.48145 31.1614 4.86446 31.1614 5.24748Z" fill="url(#paint2_linear_53_313)" fill-opacity="0.6"/>
<defs>
<linearGradient id="paint0_linear_53_313" x1="25.5269" y1="38.1372" x2="6.25023" y2="14.0409" gradientUnits="userSpaceOnUse">
<stop stop-color="#CF9809"/>
<stop offset="0.62121" stop-color="#E7B227"/>
<stop offset="1" stop-color="#FDC942"/>
</linearGradient>
<linearGradient id="paint1_linear_53_313" x1="9.10183" y1="19.7196" x2="-1.16375" y2="6.50278" gradientUnits="userSpaceOnUse">
<stop stop-color="#CF9809"/>
<stop offset="0.62121" stop-color="#E7B227"/>
<stop offset="1" stop-color="#FDC942"/>
</linearGradient>
<linearGradient id="paint2_linear_53_313" x1="37.1975" y1="19.7196" x2="26.9319" y2="6.50278" gradientUnits="userSpaceOnUse">
<stop stop-color="#CF9809"/>
<stop offset="0.62121" stop-color="#E7B227"/>
<stop offset="1" stop-color="#FDC942"/>
</linearGradient>
</defs>
</svg>
